<?xml version="1.0" encoding="UTF-8" standalone="no"?>
<!-- Created with Inkscape (http://www.inkscape.org/) -->

<svg
   xmlns:dc="http://purl.org/dc/elements/1.1/"
   xmlns:cc="http://creativecommons.org/ns#"
   xmlns:rdf="http://www.w3.org/1999/02/22-rdf-syntax-ns#"
   xmlns:svg="http://www.w3.org/2000/svg"
   xmlns="http://www.w3.org/2000/svg"
   xmlns:sodipodi="http://sodipodi.sourceforge.net/DTD/sodipodi-0.dtd"
   xmlns:inkscape="http://www.inkscape.org/namespaces/inkscape"
   width="295.35245mm"
   height="117.35248mm"
   viewBox="0 0 295.35245 117.35248"
   version="1.1"
   id="svg8"
   inkscape:version="0.92.3 (2405546, 2018-03-11)"
   sodipodi:docname="back.svg">
  <defs
     id="defs2" />
  <sodipodi:namedview
     id="base"
     pagecolor="#ffffff"
     bordercolor="#666666"
     borderopacity="1.0"
     inkscape:pageopacity="0.0"
     inkscape:pageshadow="2"
     inkscape:zoom="1.1603869"
     inkscape:cx="859.72458"
     inkscape:cy="102.25666"
     inkscape:document-units="mm"
     inkscape:current-layer="layer4"
     showgrid="false"
     inkscape:object-paths="true"
     showguides="true"
     inkscape:guide-bbox="true"
     inkscape:snap-object-midpoints="true"
     fit-margin-top="1"
     fit-margin-left="1"
     fit-margin-right="1"
     fit-margin-bottom="1"
     inkscape:measure-start="990.243,80.6997"
     inkscape:measure-end="1036.08,77.2372"
     inkscape:snap-smooth-nodes="true"
     inkscape:snap-midpoints="true">
    <sodipodi:guide
       position="147.67632,65.604082"
       orientation="1,0"
       id="guide922"
       inkscape:locked="false" />
  </sodipodi:namedview>
  <metadata
     id="metadata5">
    <rdf:RDF>
      <cc:Work
         rdf:about="">
        <dc:format>image/svg+xml</dc:format>
        <dc:type
           rdf:resource="http://purl.org/dc/dcmitype/StillImage" />
        <dc:title></dc:title>
      </cc:Work>
    </rdf:RDF>
  </metadata>
  <g
     inkscape:label="Layer 1"
     inkscape:groupmode="layer"
     id="layer1"
     transform="translate(63.920362,-6.2939561)">
    <path
       style="opacity:1;vector-effect:none;fill:none;fill-opacity:1;stroke:#ff0000;stroke-width:1.33333325;stroke-linecap:butt;stroke-linejoin:miter;stroke-miterlimit:4;stroke-dasharray:none;stroke-dashoffset:0;stroke-opacity:1;marker:none"
       d="M -237.14258,28.234375 V 462.87891 H 95.455078 293.88086 V 417.52539 H 95.455078 V 62.25 H 78.447266 V 54.691406 43.351562 28.234375 Z"
       id="rect924"
       transform="scale(0.26458333)"
       inkscape:connector-curvature="0" />
    <path
       style="opacity:1;vector-effect:none;fill:none;fill-opacity:1;stroke:#ff0000;stroke-width:1.33333325;stroke-linecap:butt;stroke-linejoin:miter;stroke-miterlimit:4;stroke-dasharray:none;stroke-dashoffset:0;stroke-opacity:1;marker:none"
       d="m 567.89648,28.234375 v 15.117187 11.339844 h -7.22851 V 62.25 H 537.66016 V 417.52539 H 339.23438 v 45.35352 H 537.66016 870.25781 V 28.234375 Z"
       transform="scale(0.26458333)"
       id="rect926"
       inkscape:connector-curvature="0"
       sodipodi:nodetypes="ccccccccccccc" />
    <g
       aria-label="Modular Synthesizer v0.1   Steve Pomeroy 2018 staticfree.info"
       style="font-style:normal;font-variant:normal;font-weight:normal;font-stretch:normal;font-size:5.04047489px;line-height:1.25;font-family:'League Spartan';-inkscape-font-specification:'League Spartan';text-align:center;letter-spacing:0px;word-spacing:0px;text-anchor:middle;fill:#000000;fill-opacity:1;stroke:none;stroke-width:0.12601186"
       id="text985">
      <path
         d="m -51.489569,54.988022 h 1.326444 l -0.522111,-5.820833 h -1.411111 l -1.291167,3.358444 -1.291166,-3.358444 h -1.411111 l -0.522111,5.820833 h 1.326444 l 0.275167,-3.450167 h 0.03528 l 1.192389,3.414889 h 0.790222 l 1.192389,-3.414889 h 0.03528 z"
         style="font-style:normal;font-variant:normal;font-weight:normal;font-stretch:normal;font-size:7.05555534px;font-family:'League Spartan';-inkscape-font-specification:'League Spartan';text-align:center;text-anchor:middle;stroke-width:0.12601186"
         id="path2742"
         inkscape:connector-curvature="0" />
      <path
         d="m -49.892809,53.1818 c 0,1.114777 0.874889,1.912055 2.180166,1.912055 1.248834,0 2.159,-0.797278 2.159,-1.912055 0,-1.128889 -0.959555,-1.919111 -2.159,-1.919111 -1.220611,0 -2.180166,0.790222 -2.180166,1.919111 z m 1.326444,0 c 0,-0.500945 0.373945,-0.853723 0.846667,-0.853723 0.465667,0 0.839611,0.352778 0.839611,0.853723 0,0.493889 -0.352778,0.846666 -0.839611,0.846666 -0.508,0 -0.846667,-0.352777 -0.846667,-0.846666 z"
         style="font-style:normal;font-variant:normal;font-weight:normal;font-stretch:normal;font-size:7.05555534px;font-family:'League Spartan';-inkscape-font-specification:'League Spartan';text-align:center;text-anchor:middle;stroke-width:0.12601186"
         id="path2744"
         inkscape:connector-curvature="0" />
      <path
         d="m -45.235041,53.1818 c 0,1.058333 0.740833,1.912055 1.799167,1.912055 0.493889,0 0.917222,-0.218722 1.185333,-0.515055 h 0.01411 v 0.409222 h 1.234722 v -6.067778 h -1.248833 v 2.794 c -0.296333,-0.289278 -0.6985,-0.451555 -1.185333,-0.451555 -1.058334,0 -1.799167,0.860777 -1.799166,1.919111 z m 1.326445,0 c 0,-0.500945 0.373944,-0.853723 0.846666,-0.853723 0.465667,0 0.839611,0.352778 0.839611,0.853723 0,0.493889 -0.352778,0.846666 -0.839611,0.846666 -0.508,0 -0.846666,-0.352777 -0.846666,-0.846666 z"
         style="font-style:normal;font-variant:normal;font-weight:normal;font-stretch:normal;font-size:7.05555534px;font-family:'League Spartan';-inkscape-font-specification:'League Spartan';text-align:center;text-anchor:middle;stroke-width:0.12601186"
         id="path2746"
         inkscape:connector-curvature="0" />
      <path
         d="m -38.972574,51.368522 h -1.248833 v 2.024944 c 0,1.213556 0.606777,1.700389 1.961444,1.700389 1.354667,0 1.961444,-0.486833 1.961444,-1.700389 v -2.024944 h -1.248833 v 1.721555 c 0,0.712612 -0.1905,0.987778 -0.712611,0.987778 -0.522111,0 -0.712611,-0.275166 -0.712611,-0.987778 z"
         style="font-style:normal;font-variant:normal;font-weight:normal;font-stretch:normal;font-size:7.05555534px;font-family:'League Spartan';-inkscape-font-specification:'League Spartan';text-align:center;text-anchor:middle;stroke-width:0.12601186"
         id="path2748"
         inkscape:connector-curvature="0" />
      <path
         d="m -35.520643,54.988022 h 1.248833 v -6.067778 h -1.248833 z"
         style="font-style:normal;font-variant:normal;font-weight:normal;font-stretch:normal;font-size:7.05555534px;font-family:'League Spartan';-inkscape-font-specification:'League Spartan';text-align:center;text-anchor:middle;stroke-width:0.12601186"
         id="path2750"
         inkscape:connector-curvature="0" />
      <path
         d="m -33.687081,53.1818 c 0,1.058333 0.740834,1.912055 1.799167,1.912055 0.493889,0 0.917222,-0.218722 1.185333,-0.515055 h 0.01411 v 0.409222 h 1.234723 v -3.6195 h -1.248834 v 0.345722 c -0.296333,-0.289278 -0.6985,-0.451555 -1.185333,-0.451555 -1.058333,0 -1.799167,0.860777 -1.799166,1.919111 z m 1.326445,0 c 0,-0.500945 0.373944,-0.853723 0.846666,-0.853723 0.465667,0 0.839612,0.352778 0.839612,0.853723 0,0.493889 -0.352778,0.846666 -0.839612,0.846666 -0.508,0 -0.846666,-0.352777 -0.846666,-0.846666 z"
         style="font-style:normal;font-variant:normal;font-weight:normal;font-stretch:normal;font-size:7.05555534px;font-family:'League Spartan';-inkscape-font-specification:'League Spartan';text-align:center;text-anchor:middle;stroke-width:0.12601186"
         id="path2752"
         inkscape:connector-curvature="0" />
      <path
         d="m -28.602892,54.988022 h 1.248834 v -1.905 c 0,-0.09172 0.09172,-0.733778 0.740833,-0.733778 0.416278,0 0.649111,0.197556 0.649111,0.197556 l 0.522111,-1.058334 c 0,0 -0.324555,-0.225777 -0.790222,-0.225777 -0.712611,0 -1.107722,0.627944 -1.107722,0.627944 h -0.01411 v -0.522111 h -1.248834 z"
         style="font-style:normal;font-variant:normal;font-weight:normal;font-stretch:normal;font-size:7.05555534px;font-family:'League Spartan';-inkscape-font-specification:'League Spartan';text-align:center;text-anchor:middle;stroke-width:0.12601186"
         id="path2754"
         inkscape:connector-curvature="0" />
      <path
         d="m -21.152556,49.061355 c -0.938389,0 -1.897945,0.691445 -1.897945,1.778 0,0.606778 0.409223,1.150056 1.107723,1.495778 0.691444,0.345722 1.312333,0.536222 1.312333,0.959556 0,0.543277 -0.550333,0.5715 -0.839611,0.5715 -0.649111,0 -1.425222,-0.656167 -1.425222,-0.656167 l -0.663223,1.114778 c 0,0 0.8255,0.769055 2.187223,0.769055 1.135944,0 2.194277,-0.486833 2.194277,-1.876778 0,-0.762 -0.712611,-1.312333 -1.361722,-1.587499 -0.663222,-0.282223 -1.213555,-0.515056 -1.213555,-0.839612 0,-0.3175 0.239889,-0.522111 0.691444,-0.522111 0.599722,0 1.178278,0.402167 1.178278,0.402167 l 0.536222,-1.058333 c 0,0 -0.747889,-0.550334 -1.806222,-0.550334 z"
         style="font-style:normal;font-variant:normal;font-weight:normal;font-stretch:normal;font-size:7.05555534px;font-family:'League Spartan';-inkscape-font-specification:'League Spartan';text-align:center;text-anchor:middle;stroke-width:0.12601186"
         id="path2756"
         inkscape:connector-curvature="0" />
      <path
         d="m -15.853722,51.368522 -0.860778,1.855611 -1.008944,-1.855611 h -1.439333 l 1.714499,3.055055 -1.248833,2.398889 h 1.439333 l 2.843389,-5.453944 z"
         style="font-style:normal;font-variant:normal;font-weight:normal;font-stretch:normal;font-size:7.05555534px;font-family:'League Spartan';-inkscape-font-specification:'League Spartan';text-align:center;text-anchor:middle;stroke-width:0.12601186"
         id="path2758"
         inkscape:connector-curvature="0" />
      <path
         d="m -14.133489,54.988022 h 1.248833 v -2.046111 c 0,-0.359834 0.366889,-0.705556 0.740833,-0.705556 0.402167,0 0.649111,0.345722 0.649111,0.705556 v 2.046111 h 1.248834 v -2.384778 c 0,-1.008944 -0.924278,-1.340555 -1.5875,-1.340555 -0.395111,0 -0.754945,0.204611 -1.037167,0.486833 h -0.01411 v -0.381 h -1.248833 z"
         style="font-style:normal;font-variant:normal;font-weight:normal;font-stretch:normal;font-size:7.05555534px;font-family:'League Spartan';-inkscape-font-specification:'League Spartan';text-align:center;text-anchor:middle;stroke-width:0.12601186"
         id="path2760"
         inkscape:connector-curvature="0" />
      <path
         d="m -9.3053981,51.368522 h -0.522111 v 0.9525 h 0.522111 v 1.389944 c 0,0.642056 0.2398889,1.382889 1.2347222,1.382889 0.5150556,0 0.9172222,-0.225778 0.9172222,-0.225778 l -0.3104444,-1.008944 c 0,0 -0.1481667,0.112889 -0.3104444,0.112889 -0.1975556,0 -0.2822223,-0.162278 -0.2822223,-0.500945 v -1.150055 h 0.762 v -0.9525 h -0.762 v -1.347611 h -1.2488333 z"
         style="font-style:normal;font-variant:normal;font-weight:normal;font-stretch:normal;font-size:7.05555534px;font-family:'League Spartan';-inkscape-font-specification:'League Spartan';text-align:center;text-anchor:middle;stroke-width:0.12601186"
         id="path2762"
         inkscape:connector-curvature="0" />
      <path
         d="m -6.7334267,54.988022 h 1.2488333 v -2.046111 c 0,-0.359834 0.3668889,-0.705556 0.7408333,-0.705556 0.4021667,0 0.6491111,0.345722 0.6491111,0.705556 v 2.046111 h 1.2488333 v -2.384778 c 0,-1.008944 -0.9242778,-1.340555 -1.5875,-1.340555 -0.3951111,0 -0.7549444,0.204611 -1.0371666,0.486833 h -0.014111 v -2.829278 h -1.2488333 z"
         style="font-style:normal;font-variant:normal;font-weight:normal;font-stretch:normal;font-size:7.05555534px;font-family:'League Spartan';-inkscape-font-specification:'League Spartan';text-align:center;text-anchor:middle;stroke-width:0.12601186"
         id="path2764"
         inkscape:connector-curvature="0" />
      <path
         d="m 1.5861748,53.351133 c 0.00706,-0.04233 0.00706,-0.119944 0.00706,-0.169333 0,-1.27 -0.83961107,-1.919111 -1.9402777,-1.919111 -1.0936111,0 -1.9896666,0.860777 -1.9896666,1.919111 0,1.051277 0.8960555,1.912055 1.9896666,1.912055 0.80433331,0 1.4675555,-0.261055 1.8767777,-0.945444 L 0.62661924,53.696855 c -0.30338888,0.324556 -0.47977777,0.402167 -0.88194442,0.402167 -0.31749999,0 -0.78316662,-0.1905 -0.78316662,-0.747889 z M -1.003214,52.659689 c 0.0211666,-0.331612 0.2610555,-0.585612 0.69144437,-0.585612 0.36688888,0 0.62794443,0.204612 0.68438887,0.585612 z"
         style="font-style:normal;font-variant:normal;font-weight:normal;font-stretch:normal;font-size:7.05555534px;font-family:'League Spartan';-inkscape-font-specification:'League Spartan';text-align:center;text-anchor:middle;stroke-width:0.12601186"
         id="path2766"
         inkscape:connector-curvature="0" />
      <path
         d="m 3.7283098,51.262689 c -0.9525,0 -1.5804444,0.423333 -1.5804444,1.164166 0,0.543278 0.3668888,0.797278 0.7337777,0.987778 0.4092222,0.211667 0.8043333,0.232833 0.8043333,0.493889 0,0.239889 -0.2116666,0.261055 -0.3880555,0.261055 -0.4021667,0 -0.8960555,-0.416277 -0.8960555,-0.416277 l -0.508,0.853722 c 0,0 0.5221111,0.486833 1.3969999,0.486833 0.7408333,0 1.7145,-0.169333 1.7145,-1.234722 0,-0.740833 -0.6208889,-1.008944 -1.1006667,-1.157111 C 3.5942542,52.603244 3.3402542,52.5468 3.3402542,52.3563 c 0,-0.169334 0.1128889,-0.218723 0.3880556,-0.218723 0.3809999,0 0.8043333,0.225778 0.8043333,0.225778 l 0.4092222,-0.818444 c 0,0 -0.5150556,-0.282222 -1.2135555,-0.282222 z"
         style="font-style:normal;font-variant:normal;font-weight:normal;font-stretch:normal;font-size:7.05555534px;font-family:'League Spartan';-inkscape-font-specification:'League Spartan';text-align:center;text-anchor:middle;stroke-width:0.12601186"
         id="path2768"
         inkscape:connector-curvature="0" />
      <path
         d="m 6.2696327,49.131911 c -0.4092222,0 -0.7408333,0.331611 -0.7408333,0.740833 0,0.409222 0.3316111,0.740834 0.7408333,0.740834 0.4092222,0 0.7408333,-0.331612 0.7408333,-0.740834 0,-0.409222 -0.3316111,-0.740833 -0.7408333,-0.740833 z m -0.6420555,2.236611 h 1.2488333 v 3.6195 H 5.6275772 Z"
         style="font-style:normal;font-variant:normal;font-weight:normal;font-stretch:normal;font-size:7.05555534px;font-family:'League Spartan';-inkscape-font-specification:'League Spartan';text-align:center;text-anchor:middle;stroke-width:0.12601186"
         id="path2770"
         inkscape:connector-curvature="0" />
      <path
         d="M 11.263092,51.368522 H 7.6718146 v 0.9525 h 1.4957777 l -1.7921111,2.667 h 3.7464998 v -0.9525 H 9.4709812 Z"
         style="font-style:normal;font-variant:normal;font-weight:normal;font-stretch:normal;font-size:7.05555534px;font-family:'League Spartan';-inkscape-font-specification:'League Spartan';text-align:center;text-anchor:middle;stroke-width:0.12601186"
         id="path2772"
         inkscape:connector-curvature="0" />
      <path
         d="m 15.380334,53.351133 c 0.0071,-0.04233 0.0071,-0.119944 0.0071,-0.169333 0,-1.27 -0.839611,-1.919111 -1.940277,-1.919111 -1.093612,0 -1.989667,0.860777 -1.989667,1.919111 0,1.051277 0.896055,1.912055 1.989667,1.912055 0.804333,0 1.467555,-0.261055 1.876777,-0.945444 l -0.903111,-0.451556 c -0.303389,0.324556 -0.479778,0.402167 -0.881944,0.402167 -0.3175,0 -0.783167,-0.1905 -0.783167,-0.747889 z m -2.589389,-0.691444 c 0.02117,-0.331612 0.261055,-0.585612 0.691444,-0.585612 0.366889,0 0.627945,0.204612 0.684389,0.585612 z"
         style="font-style:normal;font-variant:normal;font-weight:normal;font-stretch:normal;font-size:7.05555534px;font-family:'League Spartan';-inkscape-font-specification:'League Spartan';text-align:center;text-anchor:middle;stroke-width:0.12601186"
         id="path2774"
         inkscape:connector-curvature="0" />
      <path
         d="m 15.962862,54.988022 h 1.248834 v -1.905 c 0,-0.09172 0.09172,-0.733778 0.740833,-0.733778 0.416278,0 0.649111,0.197556 0.649111,0.197556 l 0.522111,-1.058334 c 0,0 -0.324555,-0.225777 -0.790222,-0.225777 -0.712611,0 -1.107722,0.627944 -1.107722,0.627944 h -0.01411 v -0.522111 h -1.248834 z"
         style="font-style:normal;font-variant:normal;font-weight:normal;font-stretch:normal;font-size:7.05555534px;font-family:'League Spartan';-inkscape-font-specification:'League Spartan';text-align:center;text-anchor:middle;stroke-width:0.12601186"
         id="path2776"
         inkscape:connector-curvature="0" />
      <path
         d="m -22.516813,59.872571 h -0.889 l 1.164167,2.1717 h 0.508 l 1.164166,-2.1717 h -0.889 l -0.529166,1.1811 z"
         style="font-style:normal;font-variant:normal;font-weight:normal;font-stretch:normal;font-size:4.23333311px;font-family:'League Spartan';-inkscape-font-specification:'League Spartan';text-align:center;text-anchor:middle;stroke-width:0.12601186"
         id="path2778"
         inkscape:connector-curvature="0" />
      <path
         d="m -20.531975,60.300137 c 0,1.2954 0.6731,1.807634 1.4224,1.807634 0.7493,0 1.418166,-0.512234 1.418166,-1.807634 0,-1.210733 -0.668866,-1.811866 -1.418166,-1.811866 -0.7493,0 -1.4224,0.601133 -1.4224,1.811866 z m 0.804333,0 c 0,-0.702733 0.232833,-1.113366 0.618067,-1.113366 0.381,0 0.613833,0.4064 0.613833,1.113366 0,0.753534 -0.232833,1.109134 -0.613833,1.109134 -0.385234,0 -0.618067,-0.3556 -0.618067,-1.109134 z"
         style="font-style:normal;font-variant:normal;font-weight:normal;font-stretch:normal;font-size:4.23333311px;font-family:'League Spartan';-inkscape-font-specification:'League Spartan';text-align:center;text-anchor:middle;stroke-width:0.12601186"
         id="path2780"
         inkscape:connector-curvature="0" />
      <path
         d="m -16.838127,61.138337 c -0.2667,0 -0.4826,0.2159 -0.4826,0.486834 0,0.2667 0.2159,0.4826 0.4826,0.4826 0.270933,0 0.486833,-0.2159 0.486833,-0.4826 0,-0.270934 -0.2159,-0.486834 -0.486833,-0.486834 z"
         style="font-style:normal;font-variant:normal;font-weight:normal;font-stretch:normal;font-size:4.23333311px;font-family:'League Spartan';-inkscape-font-specification:'League Spartan';text-align:center;text-anchor:middle;stroke-width:0.12601186"
         id="path2782"
         inkscape:connector-curvature="0" />
      <path
         d="m -15.971948,59.982637 0.575733,-0.372533 v 2.434167 h 0.795867 v -3.4925 h -0.376767 l -0.994833,0.643466 z"
         style="font-style:normal;font-variant:normal;font-weight:normal;font-stretch:normal;font-size:4.23333311px;font-family:'League Spartan';-inkscape-font-specification:'League Spartan';text-align:center;text-anchor:middle;stroke-width:0.12601186"
         id="path2784"
         inkscape:connector-curvature="0" />
      <path
         d="m -36.320766,76.797385 c -0.656872,0 -1.328561,0.484011 -1.328561,1.2446 0,0.424744 0.286456,0.805039 0.775406,1.047044 0.484011,0.242006 0.918633,0.375356 0.918633,0.671689 0,0.380295 -0.385233,0.40005 -0.587728,0.40005 -0.454378,0 -0.997655,-0.459317 -0.997655,-0.459317 l -0.464256,0.780345 c 0,0 0.57785,0.538339 1.531056,0.538339 0.795161,0 1.535994,-0.340784 1.535994,-1.313745 0,-0.5334 -0.498828,-0.918633 -0.953205,-1.11125 -0.464256,-0.197555 -0.849489,-0.360539 -0.849489,-0.587727 0,-0.22225 0.167922,-0.365478 0.484011,-0.365478 0.419805,0 0.824794,0.281516 0.824794,0.281516 l 0.375356,-0.740833 c 0,0 -0.523522,-0.385233 -1.264356,-0.385233 z"
         style="font-style:normal;font-variant:normal;font-weight:normal;font-stretch:normal;font-size:4.93888903px;font-family:'League Spartan';-inkscape-font-specification:'League Spartan';text-align:center;text-anchor:middle;stroke-width:0.12601186"
         id="path2786"
         inkscape:connector-curvature="0" />
      <path
         d="m -34.355705,78.412401 h -0.365478 v 0.66675 h 0.365478 v 0.972962 c 0,0.449438 0.167922,0.968022 0.864305,0.968022 0.360539,0 0.642056,-0.158045 0.642056,-0.158045 l -0.217311,-0.706261 c 0,0 -0.103717,0.07902 -0.217311,0.07902 -0.138289,0 -0.197556,-0.113594 -0.197556,-0.350661 v -0.805039 h 0.5334 v -0.66675 h -0.5334 v -0.943327 h -0.874183 z"
         style="font-style:normal;font-variant:normal;font-weight:normal;font-stretch:normal;font-size:4.93888903px;font-family:'League Spartan';-inkscape-font-specification:'League Spartan';text-align:center;text-anchor:middle;stroke-width:0.12601186"
         id="path2788"
         inkscape:connector-curvature="0" />
      <path
         d="m -29.992043,79.800229 c 0.0049,-0.02963 0.0049,-0.08396 0.0049,-0.118533 0,-0.889 -0.587728,-1.343378 -1.358194,-1.343378 -0.765528,0 -1.392767,0.602545 -1.392767,1.343378 0,0.735894 0.627239,1.338439 1.392767,1.338439 0.563033,0 1.027289,-0.182739 1.313744,-0.661811 l -0.632178,-0.316089 c -0.212372,0.227189 -0.335844,0.281516 -0.617361,0.281516 -0.22225,0 -0.548216,-0.13335 -0.548216,-0.523522 z m -1.812572,-0.484011 c 0.01482,-0.232128 0.182739,-0.409928 0.484011,-0.409928 0.256822,0 0.439561,0.143228 0.479072,0.409928 z"
         style="font-style:normal;font-variant:normal;font-weight:normal;font-stretch:normal;font-size:4.93888903px;font-family:'League Spartan';-inkscape-font-specification:'League Spartan';text-align:center;text-anchor:middle;stroke-width:0.12601186"
         id="path2790"
         inkscape:connector-curvature="0" />
      <path
         d="m -28.961512,78.412401 h -1.037167 l 1.358195,2.53365 h 0.592666 l 1.358195,-2.53365 h -1.037167 l -0.617361,1.37795 z"
         style="font-style:normal;font-variant:normal;font-weight:normal;font-stretch:normal;font-size:4.93888903px;font-family:'League Spartan';-inkscape-font-specification:'League Spartan';text-align:center;text-anchor:middle;stroke-width:0.12601186"
         id="path2792"
         inkscape:connector-curvature="0" />
      <path
         d="m -23.943833,79.800229 c 0.0049,-0.02963 0.0049,-0.08396 0.0049,-0.118533 0,-0.889 -0.587727,-1.343378 -1.358194,-1.343378 -0.765528,0 -1.392767,0.602545 -1.392767,1.343378 0,0.735894 0.627239,1.338439 1.392767,1.338439 0.563033,0 1.027289,-0.182739 1.313744,-0.661811 l -0.632177,-0.316089 c -0.212373,0.227189 -0.335845,0.281516 -0.617362,0.281516 -0.22225,0 -0.548216,-0.13335 -0.548216,-0.523522 z m -1.812572,-0.484011 c 0.01482,-0.232128 0.182739,-0.409928 0.484011,-0.409928 0.256823,0 0.439561,0.143228 0.479073,0.409928 z"
         style="font-style:normal;font-variant:normal;font-weight:normal;font-stretch:normal;font-size:4.93888903px;font-family:'League Spartan';-inkscape-font-specification:'League Spartan';text-align:center;text-anchor:middle;stroke-width:0.12601186"
         id="path2794"
         inkscape:connector-curvature="0" />
      <path
         d="m -22.175942,76.871468 v 4.074583 h 0.928511 v -1.5113 h 0.558095 c 0.795161,0 1.392766,-0.469194 1.392766,-1.308805 0,-0.84455 -0.597605,-1.254478 -1.392766,-1.254478 z m 0.928511,1.82245 v -1.081617 h 0.261761 c 0.365478,0 0.7112,0.123473 0.7112,0.543278 0,0.414867 -0.345722,0.538339 -0.7112,0.538339 z"
         style="font-style:normal;font-variant:normal;font-weight:normal;font-stretch:normal;font-size:4.93888903px;font-family:'League Spartan';-inkscape-font-specification:'League Spartan';text-align:center;text-anchor:middle;stroke-width:0.12601186"
         id="path2796"
         inkscape:connector-curvature="0" />
      <path
         d="m -19.310459,79.681696 c 0,0.780344 0.612422,1.338439 1.526116,1.338439 0.874184,0 1.5113,-0.558095 1.5113,-1.338439 0,-0.790222 -0.671688,-1.343378 -1.5113,-1.343378 -0.854427,0 -1.526116,0.553156 -1.526116,1.343378 z m 0.928511,0 c 0,-0.350661 0.261761,-0.597606 0.592666,-0.597606 0.325967,0 0.587728,0.246945 0.587728,0.597606 0,0.345722 -0.246944,0.592667 -0.587728,0.592667 -0.3556,0 -0.592666,-0.246945 -0.592666,-0.592667 z"
         style="font-style:normal;font-variant:normal;font-weight:normal;font-stretch:normal;font-size:4.93888903px;font-family:'League Spartan';-inkscape-font-specification:'League Spartan';text-align:center;text-anchor:middle;stroke-width:0.12601186"
         id="path2798"
         inkscape:connector-curvature="0" />
      <path
         d="m -15.876929,80.946051 h 0.874183 v -1.481666 c 0,-0.202495 0.113595,-0.424745 0.404989,-0.424745 0.31115,0 0.4445,0.22225 0.4445,0.474134 v 1.432277 h 0.874184 v -1.5113 c 0.0099,-0.192616 0.128411,-0.395111 0.404989,-0.395111 0.31115,0 0.4445,0.22225 0.4445,0.474134 v 1.432277 h 0.874183 v -1.669344 c 0,-0.706261 -0.523522,-0.938389 -0.987778,-0.938389 -0.276578,0 -0.572911,0.143228 -0.839611,0.464256 -0.1778,-0.340784 -0.548217,-0.464256 -0.884061,-0.464256 -0.276578,0 -0.528461,0.143228 -0.726017,0.340783 h -0.0099 v -0.2667 h -0.874183 z"
         style="font-style:normal;font-variant:normal;font-weight:normal;font-stretch:normal;font-size:4.93888903px;font-family:'League Spartan';-inkscape-font-specification:'League Spartan';text-align:center;text-anchor:middle;stroke-width:0.12601186"
         id="path2800"
         inkscape:connector-curvature="0" />
      <path
         d="m -8.4519263,79.800229 c 0.00494,-0.02963 0.00494,-0.08396 0.00494,-0.118533 0,-0.889 -0.5877277,-1.343378 -1.3581944,-1.343378 -0.7655283,0 -1.3927673,0.602545 -1.3927673,1.343378 0,0.735894 0.627239,1.338439 1.3927673,1.338439 0.5630333,0 1.0272889,-0.182739 1.3137444,-0.661811 l -0.6321778,-0.316089 c -0.2123722,0.227189 -0.3358444,0.281516 -0.6173611,0.281516 -0.22225,0 -0.5482168,-0.13335 -0.5482168,-0.523522 z m -1.8125727,-0.484011 c 0.01482,-0.232128 0.182739,-0.409928 0.4840115,-0.409928 0.2568222,0 0.4395611,0.143228 0.4790722,0.409928 z"
         style="font-style:normal;font-variant:normal;font-weight:normal;font-stretch:normal;font-size:4.93888903px;font-family:'League Spartan';-inkscape-font-specification:'League Spartan';text-align:center;text-anchor:middle;stroke-width:0.12601186"
         id="path2802"
         inkscape:connector-curvature="0" />
      <path
         d="m -8.0441595,80.946051 h 0.8741834 v -1.3335 c 0,-0.06421 0.064206,-0.513644 0.5185833,-0.513644 0.2913945,0 0.4543778,0.138289 0.4543778,0.138289 l 0.3654778,-0.740833 c 0,0 -0.2271889,-0.158045 -0.5531556,-0.158045 -0.4988278,0 -0.7754056,0.439561 -0.7754056,0.439561 h -0.00988 v -0.365478 h -0.8741834 z"
         style="font-style:normal;font-variant:normal;font-weight:normal;font-stretch:normal;font-size:4.93888903px;font-family:'League Spartan';-inkscape-font-specification:'League Spartan';text-align:center;text-anchor:middle;stroke-width:0.12601186"
         id="path2804"
         inkscape:connector-curvature="0" />
      <path
         d="m -5.7960379,79.681696 c 0,0.780344 0.6124223,1.338439 1.5261167,1.338439 0.8741834,0 1.5113001,-0.558095 1.5113001,-1.338439 0,-0.790222 -0.6716889,-1.343378 -1.5113001,-1.343378 -0.8544278,0 -1.5261167,0.553156 -1.5261167,1.343378 z m 0.9285112,0 c 0,-0.350661 0.2617611,-0.597606 0.5926667,-0.597606 0.3259666,0 0.5877278,0.246945 0.5877278,0.597606 0,0.345722 -0.2469445,0.592667 -0.5877278,0.592667 -0.3556001,0 -0.5926667,-0.246945 -0.5926667,-0.592667 z"
         style="font-style:normal;font-variant:normal;font-weight:normal;font-stretch:normal;font-size:4.93888903px;font-family:'League Spartan';-inkscape-font-specification:'League Spartan';text-align:center;text-anchor:middle;stroke-width:0.12601186"
         id="path2806"
         inkscape:connector-curvature="0" />
      <path
         d="M -0.46057242,78.412401 -1.0631169,79.711329 -1.769378,78.412401 h -1.0075334 l 1.2001501,2.138539 -0.8741834,1.679223 h 1.0075334 l 1.99037224,-3.817762 z"
         style="font-style:normal;font-variant:normal;font-weight:normal;font-stretch:normal;font-size:4.93888903px;font-family:'League Spartan';-inkscape-font-specification:'League Spartan';text-align:center;text-anchor:middle;stroke-width:0.12601186"
         id="path2808"
         inkscape:connector-curvature="0" />
      <path
         d="m -23.414175,83.883262 c 0.543277,0 0.57785,0.498827 0.57785,0.646994 0,0.750711 -2.099028,2.484261 -2.099028,2.484261 v 0.232128 h 3.175705 v -0.814917 h -1.5113 c 0,0 1.437217,-0.948266 1.437217,-1.901472 0,-0.513644 -0.182739,-1.432278 -1.580444,-1.432278 -1.106312,0 -1.501423,1.185334 -1.501423,1.185334 l 0.775406,0.375355 c 0,0 0.281517,-0.775405 0.726017,-0.775405 z"
         style="font-style:normal;font-variant:normal;font-weight:normal;font-stretch:normal;font-size:4.93888903px;font-family:'League Spartan';-inkscape-font-specification:'League Spartan';text-align:center;text-anchor:middle;stroke-width:0.12601186"
         id="path2810"
         inkscape:connector-curvature="0" />
      <path
         d="m -21.345244,85.211823 c 0,1.5113 0.785283,2.108905 1.659467,2.108905 0.874183,0 1.654528,-0.597605 1.654528,-2.108905 0,-1.412522 -0.780345,-2.113845 -1.654528,-2.113845 -0.874184,0 -1.659467,0.701323 -1.659467,2.113845 z m 0.938389,0 c 0,-0.819856 0.271639,-1.298928 0.721078,-1.298928 0.4445,0 0.716139,0.474133 0.716139,1.298928 0,0.879122 -0.271639,1.293989 -0.716139,1.293989 -0.449439,0 -0.721078,-0.414867 -0.721078,-1.293989 z"
         style="font-style:normal;font-variant:normal;font-weight:normal;font-stretch:normal;font-size:4.93888903px;font-family:'League Spartan';-inkscape-font-specification:'League Spartan';text-align:center;text-anchor:middle;stroke-width:0.12601186"
         id="path2812"
         inkscape:connector-curvature="0" />
      <path
         d="m -17.751894,84.841406 0.671689,-0.434622 v 2.839861 h 0.928511 v -4.074583 h -0.439561 l -1.160639,0.750711 z"
         style="font-style:normal;font-variant:normal;font-weight:normal;font-stretch:normal;font-size:4.93888903px;font-family:'League Spartan';-inkscape-font-specification:'League Spartan';text-align:center;text-anchor:middle;stroke-width:0.12601186"
         id="path2814"
         inkscape:connector-curvature="0" />
      <path
         d="m -12.83222,84.125267 c 0,-0.602544 -0.637117,-1.027289 -1.3335,-1.027289 -0.671689,0 -1.348317,0.424745 -1.348317,1.027289 0,0.449439 0.227189,0.745772 0.538339,0.923572 -0.409928,0.187678 -0.7112,0.543278 -0.7112,1.101373 0,0.686505 0.735894,1.170516 1.526117,1.170516 0.765527,0 1.521177,-0.484011 1.521177,-1.170516 0,-0.558095 -0.306211,-0.913695 -0.716139,-1.101373 0.306212,-0.1778 0.523523,-0.474133 0.523523,-0.923572 z m -0.879123,0.13335 c 0,0.271639 -0.187677,0.454378 -0.449438,0.454378 -0.251884,0 -0.459317,-0.182739 -0.459317,-0.454378 0,-0.261761 0.197555,-0.459316 0.459317,-0.459316 0.2667,0 0.449438,0.197555 0.449438,0.459316 z m -0.968022,1.743428 c 0,-0.306211 0.22225,-0.518583 0.513645,-0.518583 0.286455,0 0.518583,0.212372 0.518583,0.518583 0,0.301272 -0.22225,0.518583 -0.518583,0.518583 -0.306211,0 -0.513645,-0.217311 -0.513645,-0.518583 z"
         style="font-style:normal;font-variant:normal;font-weight:normal;font-stretch:normal;font-size:4.93888903px;font-family:'League Spartan';-inkscape-font-specification:'League Spartan';text-align:center;text-anchor:middle;stroke-width:0.12601186"
         id="path2816"
         inkscape:connector-curvature="0" />
      <path
         d="m -35.105066,90.939505 c -0.66675,0 -1.106311,0.296334 -1.106311,0.814917 0,0.380294 0.256822,0.558094 0.513644,0.691444 0.286456,0.148167 0.563034,0.162984 0.563034,0.345723 0,0.167922 -0.148167,0.182739 -0.271639,0.182739 -0.281517,0 -0.627239,-0.291395 -0.627239,-0.291395 l -0.3556,0.597606 c 0,0 0.365478,0.340783 0.9779,0.340783 0.518583,0 1.20015,-0.118533 1.20015,-0.864306 0,-0.518583 -0.434622,-0.706261 -0.770467,-0.809977 -0.217311,-0.06915 -0.395111,-0.108656 -0.395111,-0.242006 0,-0.118533 0.07902,-0.153105 0.271639,-0.153105 0.2667,0 0.563033,0.158044 0.563033,0.158044 l 0.286456,-0.572911 c 0,0 -0.360539,-0.197556 -0.849489,-0.197556 z"
         style="font-style:normal;font-variant:normal;font-weight:normal;font-stretch:normal;font-size:4.93888903px;font-family:'League Spartan';-inkscape-font-specification:'League Spartan';text-align:center;text-anchor:middle;stroke-width:0.12601186"
         id="path2818"
         inkscape:connector-curvature="0" />
      <path
         d="m -33.675643,91.013589 h -0.365478 v 0.66675 h 0.365478 V 92.6533 c 0,0.449439 0.167922,0.968022 0.864305,0.968022 0.360539,0 0.642056,-0.158044 0.642056,-0.158044 l -0.217311,-0.706262 c 0,0 -0.103717,0.07902 -0.217311,0.07902 -0.138289,0 -0.197556,-0.113595 -0.197556,-0.350661 v -0.805039 h 0.5334 v -0.66675 h -0.5334 v -0.943328 h -0.874183 z"
         style="font-style:normal;font-variant:normal;font-weight:normal;font-stretch:normal;font-size:4.93888903px;font-family:'League Spartan';-inkscape-font-specification:'League Spartan';text-align:center;text-anchor:middle;stroke-width:0.12601186"
         id="path2820"
         inkscape:connector-curvature="0" />
      <path
         d="m -32.067649,92.282883 c 0,0.740833 0.518583,1.338439 1.259417,1.338439 0.345722,0 0.642055,-0.153106 0.829733,-0.360539 h 0.0099 v 0.286456 h 0.864305 v -2.53365 h -0.874183 v 0.242005 c -0.207433,-0.202494 -0.48895,-0.316089 -0.829733,-0.316089 -0.740834,0 -1.259417,0.602545 -1.259417,1.343378 z m 0.928511,0 c 0,-0.350661 0.261761,-0.597605 0.592667,-0.597605 0.325966,0 0.587728,0.246944 0.587728,0.597605 0,0.345722 -0.246945,0.592667 -0.587728,0.592667 -0.3556,0 -0.592667,-0.246945 -0.592667,-0.592667 z"
         style="font-style:normal;font-variant:normal;font-weight:normal;font-stretch:normal;font-size:4.93888903px;font-family:'League Spartan';-inkscape-font-specification:'League Spartan';text-align:center;text-anchor:middle;stroke-width:0.12601186"
         id="path2822"
         inkscape:connector-curvature="0" />
      <path
         d="m -28.399135,91.013589 h -0.365477 v 0.66675 h 0.365477 V 92.6533 c 0,0.449439 0.167923,0.968022 0.864306,0.968022 0.360539,0 0.642055,-0.158044 0.642055,-0.158044 l -0.217311,-0.706262 c 0,0 -0.103716,0.07902 -0.217311,0.07902 -0.138289,0 -0.197555,-0.113595 -0.197555,-0.350661 v -0.805039 h 0.5334 v -0.66675 h -0.5334 v -0.943328 h -0.874184 z"
         style="font-style:normal;font-variant:normal;font-weight:normal;font-stretch:normal;font-size:4.93888903px;font-family:'League Spartan';-inkscape-font-specification:'League Spartan';text-align:center;text-anchor:middle;stroke-width:0.12601186"
         id="path2824"
         inkscape:connector-curvature="0" />
      <path
         d="m -26.149317,89.447961 c -0.286456,0 -0.518583,0.232128 -0.518583,0.518583 0,0.286456 0.232127,0.518584 0.518583,0.518584 0.286456,0 0.518583,-0.232128 0.518583,-0.518584 0,-0.286455 -0.232127,-0.518583 -0.518583,-0.518583 z m -0.449439,1.565628 h 0.874183 v 2.53365 h -0.874183 z"
         style="font-style:normal;font-variant:normal;font-weight:normal;font-stretch:normal;font-size:4.93888903px;font-family:'League Spartan';-inkscape-font-specification:'League Spartan';text-align:center;text-anchor:middle;stroke-width:0.12601186"
         id="path2826"
         inkscape:connector-curvature="0" />
      <path
         d="m -23.755268,91.655644 c 0.261761,0 0.424745,0.118534 0.424745,0.118534 l 0.296333,-0.597606 c 0,0 -0.286455,-0.237067 -0.849489,-0.237067 -0.735894,0 -1.402644,0.602545 -1.402644,1.348317 0,0.740833 0.671689,1.3335 1.402644,1.3335 0.563034,0 0.849489,-0.227189 0.849489,-0.227189 l -0.296333,-0.607483 c 0,0 -0.162984,0.118533 -0.424745,0.118533 -0.330905,0 -0.602544,-0.276578 -0.602544,-0.627239 0,-0.345722 0.271639,-0.6223 0.602544,-0.6223 z"
         style="font-style:normal;font-variant:normal;font-weight:normal;font-stretch:normal;font-size:4.93888903px;font-family:'League Spartan';-inkscape-font-specification:'League Spartan';text-align:center;text-anchor:middle;stroke-width:0.12601186"
         id="path2828"
         inkscape:connector-curvature="0" />
      <path
         d="m -22.563143,91.013589 h -0.365478 v 0.66675 h 0.365478 v 1.8669 h 0.874184 v -1.8669 h 0.582788 v -0.66675 h -0.582788 v -0.513645 c 0,-0.350661 0.04939,-0.498828 0.271638,-0.498828 0.143228,0 0.261762,0.06915 0.261762,0.06915 l 0.306211,-0.617361 c 0,0 -0.276578,-0.227189 -0.721078,-0.227189 -0.632178,0 -0.987778,0.508705 -0.992717,1.249539 z"
         style="font-style:normal;font-variant:normal;font-weight:normal;font-stretch:normal;font-size:4.93888903px;font-family:'League Spartan';-inkscape-font-specification:'League Spartan';text-align:center;text-anchor:middle;stroke-width:0.12601186"
         id="path2830"
         inkscape:connector-curvature="0" />
      <path
         d="m -20.859226,93.547239 h 0.874183 v -1.3335 c 0,-0.06421 0.06421,-0.513645 0.518583,-0.513645 0.291395,0 0.454378,0.138289 0.454378,0.138289 l 0.365478,-0.740833 c 0,0 -0.227189,-0.158045 -0.553156,-0.158045 -0.498827,0 -0.775405,0.439561 -0.775405,0.439561 h -0.0099 v -0.365477 h -0.874183 z"
         style="font-style:normal;font-variant:normal;font-weight:normal;font-stretch:normal;font-size:4.93888903px;font-family:'League Spartan';-inkscape-font-specification:'League Spartan';text-align:center;text-anchor:middle;stroke-width:0.12601186"
         id="path2832"
         inkscape:connector-curvature="0" />
      <path
         d="m -15.865084,92.401416 c 0.0049,-0.02963 0.0049,-0.08396 0.0049,-0.118533 0,-0.889 -0.587728,-1.343378 -1.358195,-1.343378 -0.765528,0 -1.392767,0.602545 -1.392767,1.343378 0,0.735895 0.627239,1.338439 1.392767,1.338439 0.563033,0 1.027289,-0.182739 1.313745,-0.661811 l -0.632178,-0.316089 c -0.212372,0.227189 -0.335845,0.281517 -0.617361,0.281517 -0.22225,0 -0.548217,-0.13335 -0.548217,-0.523523 z m -1.812573,-0.484011 c 0.01482,-0.232127 0.182739,-0.409927 0.484012,-0.409927 0.256822,0 0.439561,0.143227 0.479072,0.409927 z"
         style="font-style:normal;font-variant:normal;font-weight:normal;font-stretch:normal;font-size:4.93888903px;font-family:'League Spartan';-inkscape-font-specification:'League Spartan';text-align:center;text-anchor:middle;stroke-width:0.12601186"
         id="path2834"
         inkscape:connector-curvature="0" />
      <path
         d="m -12.884387,92.401416 c 0.0049,-0.02963 0.0049,-0.08396 0.0049,-0.118533 0,-0.889 -0.587728,-1.343378 -1.358194,-1.343378 -0.765528,0 -1.392767,0.602545 -1.392767,1.343378 0,0.735895 0.627239,1.338439 1.392767,1.338439 0.563033,0 1.027289,-0.182739 1.313744,-0.661811 l -0.632178,-0.316089 c -0.212372,0.227189 -0.335844,0.281517 -0.617361,0.281517 -0.22225,0 -0.548216,-0.13335 -0.548216,-0.523523 z m -1.812572,-0.484011 c 0.01482,-0.232127 0.182739,-0.409927 0.484011,-0.409927 0.256822,0 0.439561,0.143227 0.479072,0.409927 z"
         style="font-style:normal;font-variant:normal;font-weight:normal;font-stretch:normal;font-size:4.93888903px;font-family:'League Spartan';-inkscape-font-specification:'League Spartan';text-align:center;text-anchor:middle;stroke-width:0.12601186"
         id="path2836"
         inkscape:connector-curvature="0" />
      <path
         d="m -11.903941,92.490316 c -0.31115,0 -0.563033,0.251884 -0.563033,0.567973 0,0.31115 0.251883,0.563033 0.563033,0.563033 0.316089,0 0.567972,-0.251883 0.567972,-0.563033 0,-0.316089 -0.251883,-0.567973 -0.567972,-0.567973 z"
         style="font-style:normal;font-variant:normal;font-weight:normal;font-stretch:normal;font-size:4.93888903px;font-family:'League Spartan';-inkscape-font-specification:'League Spartan';text-align:center;text-anchor:middle;stroke-width:0.12601186"
         id="path2838"
         inkscape:connector-curvature="0" />
      <path
         d="m -10.290853,89.447961 c -0.286455,0 -0.518583,0.232128 -0.518583,0.518583 0,0.286456 0.232128,0.518584 0.518583,0.518584 0.286456,0 0.5185836,-0.232128 0.5185836,-0.518584 0,-0.286455 -0.2321276,-0.518583 -0.5185836,-0.518583 z m -0.449439,1.565628 h 0.8741837 v 2.53365 h -0.8741837 z"
         style="font-style:normal;font-variant:normal;font-weight:normal;font-stretch:normal;font-size:4.93888903px;font-family:'League Spartan';-inkscape-font-specification:'League Spartan';text-align:center;text-anchor:middle;stroke-width:0.12601186"
         id="path2840"
         inkscape:connector-curvature="0" />
      <path
         d="m -9.2451211,93.547239 h 0.8741834 v -1.432278 c 0,-0.251883 0.2568222,-0.493889 0.5185833,-0.493889 0.2815167,0 0.4543778,0.242006 0.4543778,0.493889 v 1.432278 h 0.8741834 v -1.669345 c 0,-0.706261 -0.6469945,-0.938389 -1.1112501,-0.938389 -0.2765777,0 -0.5284611,0.143228 -0.7260166,0.340784 h -0.00988 v -0.2667 h -0.8741834 z"
         style="font-style:normal;font-variant:normal;font-weight:normal;font-stretch:normal;font-size:4.93888903px;font-family:'League Spartan';-inkscape-font-specification:'League Spartan';text-align:center;text-anchor:middle;stroke-width:0.12601186"
         id="path2842"
         inkscape:connector-curvature="0" />
      <path
         d="m -5.8365155,91.013589 h -0.3654778 v 0.66675 h 0.3654778 v 1.8669 h 0.8741834 v -1.8669 h 0.5827889 v -0.66675 h -0.5827889 v -0.513645 c 0,-0.350661 0.049389,-0.498828 0.2716389,-0.498828 0.1432277,0 0.2617611,0.06915 0.2617611,0.06915 L -4.122721,89.4529 c 0,0 -0.2765778,-0.227189 -0.7210778,-0.227189 -0.6321778,0 -0.9877778,0.508705 -0.9927167,1.249539 z"
         style="font-style:normal;font-variant:normal;font-weight:normal;font-stretch:normal;font-size:4.93888903px;font-family:'League Spartan';-inkscape-font-specification:'League Spartan';text-align:center;text-anchor:middle;stroke-width:0.12601186"
         id="path2844"
         inkscape:connector-curvature="0" />
      <path
         d="m -4.3153359,92.282883 c 0,0.780345 0.6124222,1.338439 1.5261167,1.338439 0.8741833,0 1.5113,-0.558094 1.5113,-1.338439 0,-0.790222 -0.6716889,-1.343378 -1.5113,-1.343378 -0.8544278,0 -1.5261167,0.553156 -1.5261167,1.343378 z m 0.9285111,0 c 0,-0.350661 0.2617611,-0.597605 0.5926667,-0.597605 0.3259666,0 0.5877278,0.246944 0.5877278,0.597605 0,0.345722 -0.2469445,0.592667 -0.5877278,0.592667 -0.3556,0 -0.5926667,-0.246945 -0.5926667,-0.592667 z"
         style="font-style:normal;font-variant:normal;font-weight:normal;font-stretch:normal;font-size:4.93888903px;font-family:'League Spartan';-inkscape-font-specification:'League Spartan';text-align:center;text-anchor:middle;stroke-width:0.12601186"
         id="path2846"
         inkscape:connector-curvature="0" />
    </g>
    <path
       style="font-style:normal;font-variant:normal;font-weight:normal;font-stretch:normal;font-size:medium;line-height:1.25;font-family:'League Spartan';-inkscape-font-specification:'League Spartan';letter-spacing:0px;word-spacing:0px;fill:#000000;fill-opacity:1;stroke:none;stroke-width:0.26458332"
       d="m 183.9513,66.4106 c -0.20461,0 -0.381,0.074 -0.52916,0.22221 -0.14817,0.148177 -0.22273,0.324557 -0.22273,0.529167 0,0.116917 0.0275,0.223457 0.076,0.321947 l -0.50436,0.503847 v 0.793227 h -0.3421 v 5.630654 h 1.18546 v -5.630654 h -0.34313 v -0.586007 l 0.3576,-0.3576 c 0.0987,0.0487 0.2052,0.076 0.32246,0.076 0.20461,0 0.381,-0.074 0.52916,-0.222207 0.14817,-0.14817 0.22221,-0.32455 0.22221,-0.529167 0,-0.20461 -0.074,-0.38099 -0.22221,-0.529167 -0.14816,-0.14816 -0.32455,-0.22221 -0.52916,-0.22221 z m 8.50646,0 c -0.50094,0 -0.93104,0.17639 -1.29088,0.529167 -0.35278,0.345727 -0.52916,0.815007 -0.52916,1.407661 v 0.43357 h -0.70952 v 0.952904 h 0.70952 v 4.67775 h 1.18494 v -4.67775 h 1.48208 v -0.952904 h -1.48208 v -0.465607 c 0,-0.26811 0.0708,-0.47988 0.21187,-0.635097 0.14112,-0.16228 0.33873,-0.24339 0.59273,-0.24339 0.254,0 0.49735,0.12357 0.73019,0.370517 l 0.48679,-0.836124 C 193.42796,66.59735 192.96576,66.4106 192.45776,66.4106 Z m -8.50646,0.415477 a 0.33595677,0.33595677 0 0 1 0.3359,0.3359 0.33595677,0.33595677 0 0 1 -0.3359,0.335897 0.33595677,0.33595677 0 0 1 -0.33641,-0.335897 0.33595677,0.33595677 0 0 1 0.33641,-0.3359 z m -14.66629,0.18759 v 1.767331 h -0.70951 v 0.952904 h 0.70951 v 2.82567 c 0,0.59267 0.17639,1.06523 0.52917,1.418 0.35983,0.34573 0.78993,0.51883 1.29088,0.51883 0.508,0 0.9702,-0.18726 1.38648,-0.56121 l -0.48679,-0.83612 c -0.23284,0.24694 -0.47619,0.37052 -0.73019,0.37052 -0.254,0 -0.45162,-0.0778 -0.59273,-0.23306 -0.14111,-0.16228 -0.21187,-0.37733 -0.21187,-0.64544 v -2.85719 h 1.48208 v -0.952904 h -1.48208 v -1.767331 z m 9.525,0 v 1.767331 h -0.70951 v 0.952904 h 0.70951 v 2.82567 c 0,0.59267 0.17639,1.06523 0.52917,1.418 0.35983,0.34573 0.78993,0.51883 1.29088,0.51883 0.508,0 0.9702,-0.18726 1.38648,-0.56121 l -0.48679,-0.83612 c -0.23284,0.24694 -0.47619,0.37052 -0.73019,0.37052 -0.254,0 -0.45162,-0.0778 -0.59273,-0.23306 -0.14111,-0.16228 -0.21187,-0.37733 -0.21187,-0.64544 v -2.85719 h 1.48208 v -0.952904 h -1.48208 v -1.767331 z m -12.60336,1.683101 c -0.64911,0 -1.17828,0.158427 -1.5875,0.475927 -0.40217,0.310447 -0.60358,0.726907 -0.60358,1.249027 0,0.74083 0.58578,1.27 1.757,1.5875 0.0282,0.007 0.0707,0.0212 0.12712,0.0424 0.74789,0.22577 1.1219,0.47948 1.1219,0.76171 0,0.1905 -0.0778,0.34946 -0.23306,0.47646 -0.15523,0.11994 -0.367,0.17983 -0.63511,0.17983 -0.61383,0 -1.24862,-0.24715 -1.90479,-0.74104 l -0.57154,0.92088 c 0.33867,0.26811 0.72682,0.47608 1.16427,0.62425 0.4445,0.14816 0.87132,0.22272 1.28054,0.22272 0.60678,0 1.10436,-0.15895 1.49242,-0.47645 0.38805,-0.32457 0.58187,-0.75518 0.58187,-1.2914 0,-0.53622 -0.19054,-0.93094 -0.57154,-1.18494 -0.1905,-0.127 -0.37017,-0.22607 -0.5395,-0.29662 -0.16228,-0.0705 -0.33159,-0.13371 -0.50798,-0.19017 -0.17639,-0.0564 -0.38108,-0.11303 -0.61392,-0.1695 -0.22577,-0.0565 -0.40216,-0.11637 -0.52916,-0.17984 -0.18345,-0.0847 -0.27544,-0.21859 -0.27544,-0.40204 0,-0.20461 0.0882,-0.35649 0.26459,-0.45527 0.17638,-0.10583 0.40559,-0.15864 0.68781,-0.15864 0.53622,0 1.0338,0.15136 1.49241,0.45475 l 0.44442,-0.877977 c -0.57855,-0.381 -1.19212,-0.571537 -1.84123,-0.571537 z m 21.254,0 c -0.84667,0 -1.56638,0.271137 -2.15904,0.814414 -0.58561,0.53622 -0.8785,1.23521 -0.8785,2.09599 0,0.86078 0.28253,1.55925 0.84698,2.09548 0.56444,0.52917 1.23789,0.79375 2.02106,0.79375 0.89605,0 1.68652,-0.3457 2.37092,-1.03714 l -0.69867,-0.76223 c -0.46567,0.47978 -0.96273,0.71985 -1.4919,0.71985 -0.52211,0 -0.96308,-0.18019 -1.32292,-0.54002 -0.35983,-0.35983 -0.54001,-0.797 -0.54001,-1.31206 0,-0.52211 0.18018,-0.94565 0.54001,-1.27021 0.36689,-0.33161 0.79699,-0.49764 1.29088,-0.49764 0.49389,0 0.9844,0.21177 1.47123,0.6351 l 0.69867,-0.85731 c -0.58562,-0.585617 -1.30205,-0.877974 -2.14871,-0.877974 z m 12.60853,0 c -0.762,0 -1.4251,0.260777 -1.98954,0.782884 -0.56445,0.52211 -0.84646,1.22767 -0.84646,2.11667 0,0.88195 0.27494,1.5875 0.82527,2.11667 0.55739,0.52211 1.23136,0.78341 2.02158,0.78341 0.97367,0 1.76363,-0.31411 2.3704,-0.94206 l -0.67696,-0.74104 c -0.36689,0.4445 -0.90313,0.66663 -1.60869,0.66663 -0.4445,0 -0.83973,-0.12306 -1.18545,-0.37001 -0.34575,-0.254 -0.53249,-0.58555 -0.56069,-0.99477 h 4.41316 v -0.81494 c 0,-0.81138 -0.26838,-1.44669 -0.8046,-1.9053 -0.53622,-0.465667 -1.18896,-0.698144 -1.95802,-0.698144 z m 6.00274,0 c -0.762,0 -1.42511,0.260777 -1.98955,0.782884 -0.56444,0.52211 -0.84646,1.22767 -0.84646,2.11667 0,0.88195 0.27494,1.5875 0.82528,2.11667 0.55738,0.52211 1.23135,0.78341 2.02158,0.78341 0.97366,0 1.76362,-0.31411 2.3704,-0.94206 l -0.67697,-0.74104 c -0.36688,0.4445 -0.90312,0.66663 -1.60868,0.66663 -0.4445,0 -0.83974,-0.12306 -1.18546,-0.37001 -0.34575,-0.254 -0.53249,-0.58555 -0.56069,-0.99477 h 4.41317 v -0.81494 c 0,-0.81138 -0.26838,-1.44669 -0.8046,-1.9053 -0.53622,-0.465667 -1.18896,-0.698144 -1.95802,-0.698144 z m -9.18756,0.0806 c -0.36689,0.007 -0.66885,0.0424 -1.00045,0.268197 -0.32455,0.22578 -0.58207,0.515397 -0.77257,0.868157 v -1.132734 h -1.18545 v 5.630654 h 1.18545 v -2.41329 c 0,-0.64205 0.14809,-1.15327 0.44442,-1.53427 0.29633,-0.381 0.73731,-0.57154 1.32292,-0.57154 h 0.0636 l 0.59015,-1.021127 c -0.21264,-0.074 -0.34807,-0.0931 -0.64803,-0.094 z m -22.13715,0.004 c -1.15887,0 -2.69027,1.132224 -2.69027,2.719724 0,1.5875 1.10691,2.91093 2.69441,2.91093 0.74083,0 1.38015,-0.37095 1.78232,-0.81545 h 0.0212 v 0.81545 h 1.16427 v -5.630654 h -1.18546 v 0.518307 c -0.4209,-0.38671 -1.15118,-0.518307 -1.78645,-0.518307 z m 25.35401,0.931714 c 0.43745,0 0.80438,0.12686 1.10071,0.38086 0.29633,0.254 0.44442,0.61713 0.44442,1.08986 h -3.22771 c 0,-0.45156 0.17259,-0.80762 0.51831,-1.06867 0.34572,-0.26812 0.73388,-0.40205 1.16427,-0.40205 z m 6.00274,0 c 0.43744,0 0.80437,0.12686 1.1007,0.38086 0.29634,0.254 0.44442,0.61713 0.44442,1.08986 h -3.22771 c 0,-0.45156 0.17259,-0.80762 0.51832,-1.06867 0.34572,-0.26812 0.73388,-0.40205 1.16427,-0.40205 z m -31.20895,0.0806 c 0.93231,0 1.68103,0.70653 1.68103,1.70946 0,0.98882 -0.70635,1.87068 -1.68103,1.87068 -1.01706,0 -1.69499,-0.88186 -1.69499,-1.87068 0,-1.00293 0.74856,-1.70946 1.69499,-1.70946 z"
       id="path4472"
       inkscape:connector-curvature="0" />
    <g
       id="g2638"
       transform="matrix(0.1183622,0,0,0.1183622,176.06258,32.999678)"
       style="fill:#000000">
      <path
         style="fill:#000000"
         inkscape:connector-curvature="0"
         id="path2008"
         d="m 152.336,57.604 -16.439,-3.057 c -0.4,-0.075 -0.838,-0.451 -0.973,-0.837 l -5.039,-11.756 c -0.188,-0.363 -0.152,-0.933 0.08,-1.271 l 9.578,-13.96 c 0.229,-0.336 0.184,-0.847 -0.105,-1.136 L 127.475,13.624 c -0.289,-0.289 -0.799,-0.336 -1.135,-0.105 l -14.205,9.748 c -0.336,0.231 -0.912,0.272 -1.277,0.092 L 99.462,18.694 c -0.387,-0.128 -0.764,-0.561 -0.84,-0.962 L 95.457,0.729 C 95.383,0.328 94.988,0 94.58,0 H 77.66 C 77.253,0 76.858,0.328 76.784,0.729 L 73.62,17.732 c -0.076,0.401 -0.452,0.834 -0.84,0.962 l -11.397,4.665 c -0.366,0.18 -0.942,0.139 -1.277,-0.092 L 45.902,13.519 c -0.337,-0.231 -0.848,-0.184 -1.136,0.105 L 32.802,25.587 c -0.288,0.289 -0.336,0.8 -0.105,1.136 l 9.579,13.96 c 0.23,0.338 0.266,0.908 0.079,1.271 l -5.04,11.756 c -0.134,0.386 -0.571,0.762 -0.973,0.837 l -16.438,3.057 c -0.402,0.076 -0.729,0.47 -0.729,0.878 l 10e-4,16.919 c 0,0.408 0.328,0.805 0.729,0.878 l 16.035,2.984 c 0.401,0.073 0.83,0.454 0.952,0.843 l 5.006,12.505 c 0.179,0.367 0.137,0.941 -0.095,1.277 l -9.108,13.273 c -0.23,0.336 -0.183,0.848 0.105,1.137 l 11.965,11.963 c 0.288,0.287 0.799,0.334 1.136,0.105 l 13.038,-8.949 c 0.336,-0.23 0.899,-0.248 1.25,-0.043 l 5.75,3.07 c 0.364,0.186 0.789,0.029 0.945,-0.348 L 78.74,85.449 c 0.157,-0.377 0,-0.858 -0.348,-1.071 l -1.439,-0.881 c -0.266,-0.162 -0.627,-0.441 -0.91,-0.697 -5.191,-3.324 -8.635,-9.139 -8.635,-15.761 0,-10.334 8.378,-18.711 18.711,-18.711 10.333,0 18.71,8.377 18.71,18.711 0,6.622 -3.443,12.437 -8.635,15.761 -0.281,0.256 -0.643,0.535 -0.908,0.697 l -1.439,0.881 c -0.346,0.213 -0.504,0.694 -0.348,1.071 l 11.855,28.648 c 0.156,0.377 0.58,0.533 0.945,0.348 l 5.75,-3.07 c 0.352,-0.205 0.914,-0.188 1.25,0.043 l 13.039,8.949 c 0.336,0.229 0.848,0.182 1.135,-0.105 l 11.965,-11.963 c 0.289,-0.289 0.336,-0.801 0.105,-1.137 l -9.109,-13.273 c -0.23,-0.336 -0.273,-0.91 -0.094,-1.277 l 5.006,-12.505 c 0.123,-0.389 0.549,-0.77 0.951,-0.843 l 16.035,-2.984 c 0.4,-0.073 0.729,-0.47 0.729,-0.878 l 0.002,-16.919 c 0.001,-0.409 -0.327,-0.803 -0.727,-0.879" />
      <path
         style="fill:#000000;fill-rule:evenodd"
         inkscape:connector-curvature="0"
         id="path2010"
         d="m 45.597,180.781 h 3.613 v -12.254 c 0,-4.426 -3.046,-5.914 -7.473,-5.914 -2.692,0 -4.675,0.707 -6.056,2.621 l 2.833,2.16 c 0.637,-1.027 1.523,-1.383 3.4,-1.383 2.585,0 3.683,0.604 3.683,2.303 v 1.877 h -4.994 c -3.86,0 -5.843,2.445 -5.843,5.313 0,3.117 2.337,5.49 6.339,5.49 2.444,0 3.684,-0.566 4.427,-1.807 h 0.071 z m 0,-6.305 c 0,2.799 -1.027,3.117 -4.037,3.117 -2.444,0 -3.401,-1.063 -3.401,-2.266 0,-1.311 0.992,-2.162 3.118,-2.162 h 4.32 z" />
      <path
         style="fill:#000000;fill-rule:evenodd"
         inkscape:connector-curvature="0"
         id="path2012"
         d="m 53.178,180.781 h 3.612 v -10.803 c 0,-2.619 1.736,-3.754 3.507,-3.754 0.921,0 1.523,0.248 2.373,0.887 l 2.62,-3.117 c -1.098,-0.85 -2.301,-1.381 -3.754,-1.381 -1.912,0 -3.542,0.709 -4.675,2.125 H 56.79 v -1.912 h -3.612 z" />
      <path
         style="fill:#000000;fill-rule:evenodd"
         inkscape:connector-curvature="0"
         id="path2014"
         d="m 76.095,180.781 h 3.612 v -25.217 h -3.612 v 9.174 c -1.346,-1.275 -2.798,-2.125 -4.64,-2.125 -2.196,0 -3.789,0.99 -4.816,2.338 -0.992,1.273 -1.275,2.441 -1.275,6.836 0,4.426 0.283,5.594 1.275,6.869 1.027,1.346 2.62,2.338 4.816,2.338 1.842,0 3.507,-0.852 4.64,-2.09 z m -3.542,-14.557 c 3.365,0 3.542,2.977 3.542,5.563 0,2.621 -0.177,5.594 -3.542,5.594 -3.4,0 -3.577,-2.797 -3.577,-5.594 0,-2.764 0.177,-5.563 3.577,-5.563" />
      <polygon
         style="fill:#000000;fill-rule:evenodd"
         id="polygon2016"
         points="94.318,168.208 94.389,168.208 98.143,180.781 101.332,180.781 107.068,162.826 103.242,162.826 99.809,175.398 99.736,175.398 95.664,162.826 93.043,162.826 88.971,175.398 88.9,175.398 85.464,162.826 81.64,162.826 87.377,180.781 90.564,180.781 " />
      <path
         style="fill:#000000;fill-rule:evenodd"
         inkscape:connector-curvature="0"
         id="path2018"
         d="m 118.186,180.781 h 3.613 v -12.254 c 0,-4.426 -3.047,-5.914 -7.473,-5.914 -2.691,0 -4.676,0.707 -6.057,2.621 l 2.834,2.16 c 0.637,-1.027 1.521,-1.383 3.398,-1.383 2.586,0 3.684,0.604 3.684,2.303 v 1.877 h -4.994 c -3.859,0 -5.844,2.445 -5.844,5.313 0,3.117 2.338,5.49 6.34,5.49 2.443,0 3.684,-0.566 4.428,-1.807 h 0.07 v 1.594 z m 0,-6.305 c 0,2.799 -1.027,3.117 -4.037,3.117 -2.443,0 -3.4,-1.063 -3.4,-2.266 0,-1.311 0.992,-2.162 3.117,-2.162 h 4.32 z" />
      <path
         style="fill:#000000;fill-rule:evenodd"
         inkscape:connector-curvature="0"
         id="path2020"
         d="m 125.768,180.781 h 3.611 v -10.803 c 0,-2.619 1.734,-3.754 3.506,-3.754 0.922,0 1.523,0.248 2.373,0.887 l 2.621,-3.117 c -1.098,-0.85 -2.303,-1.381 -3.754,-1.381 -1.912,0 -3.541,0.709 -4.674,2.125 h -0.072 v -1.912 h -3.611 z" />
      <path
         style="fill:#000000;fill-rule:evenodd"
         inkscape:connector-curvature="0"
         id="path2022"
         d="m 152.748,173.167 v -2.977 c 0,-4.639 -3.434,-7.578 -7.4,-7.578 -3.471,0 -7.402,2.266 -7.402,9.242 0,7.367 4.285,9.139 7.969,9.139 2.408,0 4.709,-0.85 6.48,-2.904 l -2.621,-2.232 c -1.063,1.1 -2.551,1.736 -3.93,1.736 -2.48,0 -4.285,-1.488 -4.285,-4.426 z m -11.189,-2.976 c 0.07,-2.727 1.664,-4.18 3.789,-4.18 2.125,0 3.684,1.453 3.789,4.18 z" />
      <path
         style="fill:#000000;fill-rule:evenodd"
         inkscape:connector-curvature="0"
         id="path2024"
         d="m 0,143.425 c 0,3.895 0.566,5.383 1.947,6.906 0.992,1.098 2.657,2.301 5.455,2.301 2.797,0 4.462,-1.203 5.454,-2.301 1.381,-1.523 1.948,-3.012 1.948,-6.906 0,-3.861 -0.567,-5.348 -1.948,-6.871 -0.992,-1.098 -2.657,-2.303 -5.454,-2.303 -2.798,0 -4.463,1.205 -5.455,2.303 C 0.566,138.078 0,139.564 0,143.425 m 11.191,0.035 c 0,2.586 -0.212,3.293 -0.885,4.25 -0.532,0.744 -1.665,1.311 -2.904,1.311 -1.24,0 -2.373,-0.566 -2.904,-1.311 -0.673,-0.957 -0.886,-1.664 -0.886,-4.285 0,-2.586 0.213,-3.295 0.886,-4.25 0.531,-0.744 1.664,-1.311 2.904,-1.311 1.239,0 2.372,0.566 2.904,1.311 0.673,0.955 0.885,1.664 0.885,4.285" />
      <path
         style="fill:#000000;fill-rule:evenodd"
         inkscape:connector-curvature="0"
         id="path2026"
         d="m 49.469,144.806 v -2.975 c 0,-4.641 -3.435,-7.58 -7.401,-7.58 -3.472,0 -7.402,2.268 -7.402,9.244 0,7.365 4.285,9.137 7.968,9.137 2.409,0 4.71,-0.85 6.481,-2.904 l -2.621,-2.23 c -1.062,1.098 -2.549,1.736 -3.93,1.736 -2.48,0 -4.286,-1.488 -4.286,-4.428 z m -11.191,-2.974 c 0.071,-2.729 1.665,-4.18 3.79,-4.18 2.125,0 3.683,1.451 3.789,4.18 z" />
      <path
         style="fill:#000000;fill-rule:evenodd"
         inkscape:connector-curvature="0"
         id="path2028"
         d="m 52.552,152.419 h 3.612 v -10.693 c 0,-2.445 1.523,-3.861 3.577,-3.861 2.019,0 3.542,1.416 3.542,3.861 v 10.693 h 3.612 v -11.934 c 0,-4.074 -3.187,-6.234 -5.985,-6.234 -1.912,0 -3.542,0.709 -4.674,2.125 h -0.072 v -1.912 h -3.612 z" />
      <path
         style="fill:#000000;fill-rule:evenodd"
         inkscape:connector-curvature="0"
         id="path2030"
         d="m 76.662,149.41 c 2.302,2.16 4.994,3.223 7.898,3.223 4.179,0 7.437,-2.018 7.437,-5.525 0,-2.867 -1.486,-5.135 -5.206,-5.383 l -2.975,-0.211 c -1.806,-0.143 -2.372,-0.922 -2.372,-1.701 0,-1.238 0.779,-2.16 3.08,-2.16 1.949,0 3.402,0.674 4.818,1.664 l 2.23,-2.619 c -1.771,-1.488 -3.895,-2.445 -7.049,-2.445 -3.789,0 -6.693,1.877 -6.693,5.525 0,3.08 2.196,4.852 5.17,5.1 l 3.188,0.283 c 1.241,0.105 2.196,0.496 2.196,1.771 0,1.523 -1.489,2.301 -3.542,2.301 -2.408,0 -4.108,-0.777 -5.666,-2.301 z" />
      <path
         style="fill:#000000;fill-rule:evenodd"
         inkscape:connector-curvature="0"
         id="path2032"
         d="m 94.051,143.425 c 0,3.895 0.568,5.383 1.949,6.906 0.992,1.098 2.656,2.301 5.453,2.301 2.799,0 4.463,-1.203 5.455,-2.301 1.381,-1.523 1.947,-3.012 1.947,-6.906 0,-3.861 -0.566,-5.348 -1.947,-6.871 -0.992,-1.098 -2.656,-2.303 -5.455,-2.303 -2.797,0 -4.461,1.205 -5.453,2.303 -1.381,1.524 -1.949,3.01 -1.949,6.871 m 11.191,0.035 c 0,2.586 -0.211,3.293 -0.885,4.25 -0.531,0.744 -1.664,1.311 -2.904,1.311 -1.238,0 -2.373,-0.566 -2.902,-1.311 -0.674,-0.957 -0.887,-1.664 -0.887,-4.285 0,-2.586 0.213,-3.295 0.887,-4.25 0.529,-0.744 1.664,-1.311 2.902,-1.311 1.24,0 2.373,0.566 2.904,1.311 0.674,0.955 0.885,1.664 0.885,4.285" />
      <path
         style="fill:#000000;fill-rule:evenodd"
         inkscape:connector-curvature="0"
         id="path2034"
         d="m 111.939,146.4 c 0,4.072 3.188,6.232 6.021,6.232 1.875,0 3.506,-0.709 4.639,-2.125 h 0.07 v 1.914 h 3.611 v -17.957 h -3.611 v 10.695 c 0,2.443 -1.523,3.861 -3.543,3.861 -2.053,0 -3.576,-1.418 -3.576,-3.861 v -10.695 h -3.611 z" />
      <path
         style="fill:#000000;fill-rule:evenodd"
         inkscape:connector-curvature="0"
         id="path2036"
         d="m 130.242,152.419 h 3.613 v -10.801 c 0,-2.621 1.734,-3.754 3.506,-3.754 0.922,0 1.523,0.248 2.373,0.885 l 2.621,-3.117 c -1.1,-0.85 -2.301,-1.381 -3.754,-1.381 -1.912,0 -3.543,0.709 -4.676,2.125 h -0.07 v -1.912 h -3.613 z" />
      <path
         style="fill:#000000;fill-rule:evenodd"
         inkscape:connector-curvature="0"
         id="path2038"
         d="m 153.859,147.144 c -0.885,1.098 -2.16,1.877 -3.646,1.877 -2.939,0 -4.676,-1.666 -4.676,-5.563 0,-3.93 1.736,-5.594 4.676,-5.594 1.486,0 2.762,0.779 3.646,1.877 l 2.656,-2.373 c -1.557,-1.807 -3.719,-3.117 -6.445,-3.117 -4.143,0 -8.145,2.621 -8.145,9.207 0,6.555 4.002,9.174 8.145,9.174 2.727,0 4.889,-1.311 6.445,-3.115 z" />
      <path
         style="fill:#000000;fill-rule:evenodd"
         inkscape:connector-curvature="0"
         id="path2040"
         d="m 172.238,144.806 v -2.975 c 0,-4.641 -3.438,-7.58 -7.402,-7.58 -3.473,0 -7.402,2.268 -7.402,9.244 0,7.365 4.285,9.137 7.969,9.137 2.408,0 4.711,-0.85 6.48,-2.904 l -2.621,-2.23 c -1.063,1.098 -2.549,1.736 -3.93,1.736 -2.48,0 -4.285,-1.488 -4.285,-4.428 z m -11.191,-2.974 c 0.07,-2.729 1.664,-4.18 3.789,-4.18 2.125,0 3.682,1.451 3.789,4.18 z" />
      <path
         style="fill:#000000"
         inkscape:connector-curvature="0"
         id="path2042"
         d="m 25.041,149.021 c 3.4,0 3.577,-2.799 3.577,-5.561 0,-2.799 -0.177,-5.596 -3.577,-5.596 -3.364,0 -3.542,2.975 -3.542,5.596 0,2.586 0.177,5.561 3.542,5.561 m -7.168,31.76 v -46.316 h 3.626 v 1.877 c 1.134,-1.24 2.798,-2.09 4.64,-2.09 2.195,0 3.79,0.992 4.817,2.338 0.991,1.275 1.274,2.443 1.274,6.871 0,4.391 -0.283,5.561 -1.274,6.834 -1.027,1.346 -2.622,2.338 -4.817,2.338 -1.842,0 -3.294,-0.85 -4.64,-2.125 l -0.013,14.23 c 1.204,-1.416 2.833,-2.125 4.745,-2.125 2.798,0 5.985,2.16 5.985,6.232 v 11.936 h -3.612 v -10.695 c 0,-2.445 -1.523,-3.861 -3.542,-3.861 -2.054,0 -3.576,1.416 -3.576,3.861 v 10.695 z" />
    </g>
    <rect
       style="opacity:1;vector-effect:none;fill:none;fill-opacity:1;stroke:#800000;stroke-width:0.2;stroke-linecap:butt;stroke-linejoin:miter;stroke-miterlimit:4;stroke-dasharray:none;stroke-dashoffset:0;stroke-opacity:1;marker:none"
       id="rect915"
       width="19.799999"
       height="12.9"
       x="92.394638"
       y="-218.4558"
       transform="rotate(90)" />
    <g
       id="g928"
       transform="translate(-14.934699)">
      <rect
         ry="4"
         y="92.29464"
         x="178.6855"
         height="20"
         width="28"
         id="rect917"
         style="opacity:1;vector-effect:none;fill:none;fill-opacity:1;stroke:#800000;stroke-width:0.2;stroke-linecap:butt;stroke-linejoin:miter;stroke-miterlimit:4;stroke-dasharray:none;stroke-dashoffset:0;stroke-opacity:1;marker:none" />
      <circle
         r="1.7"
         cy="102.29464"
         cx="172.6855"
         id="path921"
         style="opacity:1;vector-effect:none;fill:none;fill-opacity:1;stroke:#800000;stroke-width:0.2;stroke-linecap:butt;stroke-linejoin:miter;stroke-miterlimit:4;stroke-dasharray:none;stroke-dashoffset:0;stroke-opacity:1;marker:none" />
      <circle
         style="opacity:1;vector-effect:none;fill:none;fill-opacity:1;stroke:#800000;stroke-width:0.2;stroke-linecap:butt;stroke-linejoin:miter;stroke-miterlimit:4;stroke-dasharray:none;stroke-dashoffset:0;stroke-opacity:1;marker:none"
         id="circle923"
         cx="212.6855"
         cy="102.29464"
         r="1.7" />
    </g>
  </g>
  <g
     inkscape:groupmode="layer"
     id="layer4"
     inkscape:label="hardware"
     style="display:none">
    <rect
       transform="translate(63.920362,-6.2939562)"
       style="opacity:0.5;vector-effect:none;fill:#666666;fill-opacity:1;stroke:none;stroke-width:0.2;stroke-linecap:butt;stroke-linejoin:miter;stroke-miterlimit:4;stroke-dasharray:none;stroke-dashoffset:0;stroke-opacity:1;marker:none"
       id="rect935"
       width="15.01"
       height="20.85"
       x="204.50079"
       y="91.869637"
       ry="0.62703586" />
    <rect
       transform="translate(63.920362,-6.2939562)"
       style="opacity:0.5;vector-effect:none;fill:#666666;fill-opacity:1;stroke:none;stroke-width:0.2;stroke-linecap:butt;stroke-linejoin:miter;stroke-miterlimit:4;stroke-dasharray:none;stroke-dashoffset:0;stroke-opacity:1;marker:none"
       id="rect937"
       width="49.5"
       height="22"
       x="153.00081"
       y="91.29464"
       ry="11" />
  </g>
  <g
     inkscape:groupmode="layer"
     id="layer3"
     inkscape:label="original text"
     style="display:none"
     transform="translate(63.920362,-6.2939561)">
    <text
       id="text2732"
       y="54.988022"
       x="-18.835632"
       style="font-style:normal;font-variant:normal;font-weight:normal;font-stretch:normal;font-size:5.04047489px;line-height:1.25;font-family:'League Spartan';-inkscape-font-specification:'League Spartan';text-align:center;letter-spacing:0px;word-spacing:0px;text-anchor:middle;fill:#000000;fill-opacity:1;stroke:none;stroke-width:0.12601186"
       xml:space="preserve"><tspan
         style="font-style:normal;font-variant:normal;font-weight:normal;font-stretch:normal;font-size:7.05555534px;font-family:'League Spartan';-inkscape-font-specification:'League Spartan';text-align:center;text-anchor:middle;stroke-width:0.12601186"
         y="54.988022"
         x="-18.83563"
         id="tspan2718"
         sodipodi:role="line">Modular Synthesizer</tspan><tspan
         id="tspan2720"
         style="font-style:normal;font-variant:normal;font-weight:normal;font-stretch:normal;font-size:4.23333311px;font-family:'League Spartan';-inkscape-font-specification:'League Spartan';text-align:center;text-anchor:middle;stroke-width:0.12601186"
         y="62.04427"
         x="-18.835632"
         sodipodi:role="line">v0.1</tspan><tspan
         id="tspan2722"
         style="font-style:normal;font-variant:normal;font-weight:normal;font-stretch:normal;font-family:'League Spartan';-inkscape-font-specification:'League Spartan';text-align:center;text-anchor:middle;stroke-width:0.12601186"
         y="68.344864"
         x="-18.835632"
         sodipodi:role="line" /><tspan
         id="tspan2724"
         style="font-style:normal;font-variant:normal;font-weight:normal;font-stretch:normal;font-size:4.93888903px;font-family:'League Spartan';-inkscape-font-specification:'League Spartan';text-align:center;text-anchor:middle;stroke-width:0.12601186"
         y="74.645454"
         x="-18.835632"
         sodipodi:role="line" /><tspan
         id="tspan2726"
         style="font-style:normal;font-variant:normal;font-weight:normal;font-stretch:normal;font-size:4.93888903px;font-family:'League Spartan';-inkscape-font-specification:'League Spartan';text-align:center;text-anchor:middle;stroke-width:0.12601186"
         y="80.946053"
         x="-18.835632"
         sodipodi:role="line">Steve Pomeroy</tspan><tspan
         id="tspan2728"
         style="font-style:normal;font-variant:normal;font-weight:normal;font-stretch:normal;font-size:4.93888903px;font-family:'League Spartan';-inkscape-font-specification:'League Spartan';text-align:center;text-anchor:middle;stroke-width:0.12601186"
         y="87.246643"
         x="-18.835632"
         sodipodi:role="line">2018</tspan><tspan
         id="tspan2730"
         style="font-style:normal;font-variant:normal;font-weight:normal;font-stretch:normal;font-size:4.93888903px;font-family:'League Spartan';-inkscape-font-specification:'League Spartan';text-align:center;text-anchor:middle;stroke-width:0.12601186"
         y="93.547241"
         x="-18.835632"
         sodipodi:role="line">staticfree.info</tspan></text>
  </g>
  <g
     inkscape:groupmode="layer"
     id="layer2"
     inkscape:label="clearances"
     style="display:none"
     transform="translate(63.920362,-6.2939561)">
    <g
       id="g918">
      <rect
         y="14.470238"
         x="25.255955"
         height="96"
         width="117"
         id="rect836"
         style="opacity:1;vector-effect:none;fill:#cccccc;fill-opacity:1;stroke:none;stroke-width:0.35277775;stroke-linecap:butt;stroke-linejoin:miter;stroke-miterlimit:4;stroke-dasharray:none;stroke-dashoffset:0;stroke-opacity:1;marker:none" />
      <rect
         y="11.470238"
         x="20.755955"
         height="3"
         width="129.5"
         id="rect857"
         style="opacity:1;vector-effect:none;fill:#cccccc;fill-opacity:1;stroke:none;stroke-width:0.35277775;stroke-linecap:butt;stroke-linejoin:miter;stroke-miterlimit:4;stroke-dasharray:none;stroke-dashoffset:0;stroke-opacity:1;marker:none" />
      <rect
         y="7.4702382"
         x="20.755955"
         height="3.9999995"
         width="129.5"
         id="rect861"
         style="opacity:1;vector-effect:none;fill:none;fill-opacity:1;stroke:#800080;stroke-width:0.35277775;stroke-linecap:butt;stroke-linejoin:miter;stroke-miterlimit:4;stroke-dasharray:none;stroke-dashoffset:0;stroke-opacity:1;marker:none" />
      <rect
         y="14.470238"
         x="20.755955"
         height="2"
         width="4.5"
         id="rect871"
         style="opacity:1;vector-effect:none;fill:#cccccc;fill-opacity:1;stroke:none;stroke-width:0.35277775;stroke-linecap:butt;stroke-linejoin:miter;stroke-miterlimit:4;stroke-dasharray:none;stroke-dashoffset:0;stroke-opacity:1;marker:none" />
      <rect
         style="opacity:1;vector-effect:none;fill:#cccccc;fill-opacity:1;stroke:none;stroke-width:0.35277775;stroke-linecap:butt;stroke-linejoin:miter;stroke-miterlimit:4;stroke-dasharray:none;stroke-dashoffset:0;stroke-opacity:1;marker:none"
         id="rect873"
         width="4.5"
         height="2"
         x="142.25595"
         y="14.470238" />
    </g>
    <path
       style="opacity:1;vector-effect:none;fill:#cccccc;fill-opacity:1;stroke:none;stroke-width:1.33333325;stroke-linecap:butt;stroke-linejoin:miter;stroke-miterlimit:4;stroke-dasharray:none;stroke-dashoffset:0;stroke-opacity:1;marker:none"
       d="M 78.447266,28.234375 V 43.351562 54.691406 62.25 H 95.455078 V 417.52539 H 537.66016 V 62.25 h 17.00781 v -7.558594 h 13.22851 V 43.351562 28.234375 Z"
       id="rect934"
       transform="scale(0.26458333)"
       inkscape:connector-curvature="0" />
    <rect
       style="opacity:1;vector-effect:none;fill:none;fill-opacity:1;stroke:#800080;stroke-width:0.35277775;stroke-linecap:butt;stroke-linejoin:miter;stroke-miterlimit:4;stroke-dasharray:none;stroke-dashoffset:0;stroke-opacity:1;marker:none"
       id="rect815"
       width="293"
       height="115"
       x="-62.744045"
       y="7.4702382" />
  </g>
</svg>
