<?xml version="1.0" encoding="UTF-8" standalone="no"?>
<!-- Created with Inkscape (http://www.inkscape.org/) -->

<svg
   xmlns:dc="http://purl.org/dc/elements/1.1/"
   xmlns:cc="http://creativecommons.org/ns#"
   xmlns:rdf="http://www.w3.org/1999/02/22-rdf-syntax-ns#"
   xmlns:svg="http://www.w3.org/2000/svg"
   xmlns="http://www.w3.org/2000/svg"
   xmlns:sodipodi="http://sodipodi.sourceforge.net/DTD/sodipodi-0.dtd"
   xmlns:inkscape="http://www.inkscape.org/namespaces/inkscape"
   width="210mm"
   height="297mm"
   viewBox="0 0 210 297"
   version="1.1"
   id="svg1628"
   sodipodi:docname="side.svg"
   inkscape:version="0.92.3 (2405546, 2018-03-11)">
  <defs
     id="defs1622" />
  <sodipodi:namedview
     id="base"
     pagecolor="#ffffff"
     bordercolor="#666666"
     borderopacity="1.0"
     inkscape:pageopacity="0.0"
     inkscape:pageshadow="2"
     inkscape:zoom="1.4419083"
     inkscape:cx="343.4846"
     inkscape:cy="676.77323"
     inkscape:document-units="mm"
     inkscape:current-layer="layer3"
     showgrid="false"
     inkscape:measure-start="140.54,498.62"
     inkscape:measure-end="396.006,498.62"
     inkscape:snap-object-midpoints="true"
     showguides="true"
     inkscape:guide-bbox="true"
     inkscape:snap-smooth-nodes="false"
     inkscape:snap-intersection-paths="false"
     inkscape:object-paths="false"
     inkscape:snap-midpoints="true">
    <sodipodi:guide
       position="15.759761,251.46325"
       orientation="0,1"
       id="guide2195"
       inkscape:locked="false" />
    <sodipodi:guide
       position="15.759761,128.96323"
       orientation="0,1"
       id="guide2197"
       inkscape:locked="false" />
    <sodipodi:guide
       position="40.689508,258.95001"
       orientation="0,1"
       id="guide2215"
       inkscape:locked="false" />
    <sodipodi:guide
       position="30.411213,247.54742"
       orientation="1,0"
       id="guide2217"
       inkscape:locked="false" />
    <sodipodi:guide
       position="45.439545,255.34381"
       orientation="1,0"
       id="guide2219"
       inkscape:locked="false" />
    <sodipodi:guide
       position="41.805934,243.94909"
       orientation="0,1"
       id="guide2229"
       inkscape:locked="false" />
    <sodipodi:guide
       position="25.411212,255.87678"
       orientation="1,0"
       id="guide2231"
       inkscape:locked="false" />
    <sodipodi:guide
       position="32.699121,263.95002"
       orientation="0,1"
       id="guide2233"
       inkscape:locked="false" />
    <sodipodi:guide
       position="33.9448,116.44907"
       orientation="0,1"
       id="guide2269"
       inkscape:locked="false" />
    <sodipodi:guide
       position="116.57181,164.63397"
       orientation="1,0"
       id="guide2317"
       inkscape:locked="false" />
    <sodipodi:guide
       position="111.58961,263.95001"
       orientation="1,0"
       id="guide2384"
       inkscape:locked="false" />
    <sodipodi:guide
       position="96.56128,263.95001"
       orientation="1,0"
       id="guide2386"
       inkscape:locked="false" />
    <sodipodi:guide
       position="91.592012,136.44999"
       orientation="0,1"
       id="guide2395"
       inkscape:locked="false" />
    <sodipodi:guide
       position="91.592012,121.44907"
       orientation="0,1"
       id="guide2397"
       inkscape:locked="false" />
    <sodipodi:guide
       position="104.07544,252.81168"
       orientation="1,0"
       id="guide1894"
       inkscape:locked="false" />
    <sodipodi:guide
       position="37.925622,252.81168"
       orientation="1,0"
       id="guide1896"
       inkscape:locked="false" />
    <sodipodi:guide
       position="139.74199,258.95003"
       orientation="1,0"
       id="guide2564"
       inkscape:locked="false" />
  </sodipodi:namedview>
  <metadata
     id="metadata1625">
    <rdf:RDF>
      <cc:Work
         rdf:about="">
        <dc:format>image/svg+xml</dc:format>
        <dc:type
           rdf:resource="http://purl.org/dc/dcmitype/StillImage" />
        <dc:title></dc:title>
      </cc:Work>
    </rdf:RDF>
  </metadata>
  <g
     inkscape:groupmode="layer"
     id="layer3"
     inkscape:label="outline">
    <rect
       style="display:inline;opacity:1;vector-effect:none;fill:none;fill-opacity:1;stroke:#800080;stroke-width:0.35277775;stroke-linecap:butt;stroke-linejoin:miter;stroke-miterlimit:4;stroke-dasharray:none;stroke-dashoffset:0;stroke-opacity:1;marker:none"
       id="rect2556"
       width="116.83078"
       height="147.50098"
       x="27.911211"
       y="33.04998"
       ry="5.0000105" />
  </g>
  <g
     inkscape:label="Layer 1"
     inkscape:groupmode="layer"
     id="layer1"
     style="display:inline">
    <path
       id="path1866"
       d="m 39.935773,38.049991 -0.10584,0.03528 -0.0705,0.03528 -0.10583,0.07055 -0.0353,0.07056 -0.0706,0.07055 v 0.105834 l -0.0353,0.105834 v 0.388089 l 0.0353,0.105829 v 0.105833 l 0.0706,0.07056 0.0353,0.07055 0.10583,0.07056 0.0705,0.03528 0.10584,0.03528 0.0705,-3e-6 0.59967,-1.1e-5 0.0705,-7e-6 0.0353,0.03528 h 0.0353 v 0.03528 l 0.0353,0.03528 0.0353,0.03528 v 0.03528 l -7e-5,0.03527 6e-5,2.081375 1.2e-4,0.105826 -0.0353,0.07056 -0.0353,0.07056 -0.0353,0.07055 -0.0706,0.07056 -0.0706,0.03528 -0.0706,0.03528 -0.0705,0.03527 -1.76371,0.352766 h -1.48125 l -1.76381,-0.352761 -0.0705,-0.03527 -0.0706,-0.03528 -0.0705,-0.03528 -0.0706,-0.07056 -0.0353,-0.07055 -0.0353,-0.07056 -0.0353,-0.07056 2e-5,-0.10583 -3e-5,-2.081371 -5e-5,-0.03527 v -0.03528 l 0.0353,-0.03528 v -0.03528 l 0.0353,-0.03528 h 0.0353 l 0.0353,-0.03528 0.0352,7e-6 0.59962,1.1e-5 0.10578,3e-6 0.10583,-0.03528 0.0706,-0.03528 0.0706,-0.07056 0.0705,-0.07055 0.0353,-0.07056 0.0353,-0.105833 0.0353,-0.105829 v -0.388054 l -0.0353,-0.105834 -0.0353,-0.105834 -0.0353,-0.07055 -0.0705,-0.07056 -0.0706,-0.07055 -0.0706,-0.03528 -0.10583,-0.03528 -0.1058,-2.2e-5 h -1.79914 l -0.0705,2.2e-5 -0.105838,0.03528 -0.105833,0.03528 -0.07056,0.07055 -0.03528,0.07056 -0.07056,0.07055 -0.03528,0.105834 -1.9e-5,0.105834 -3.2e-5,0.317504 -1.3e-5,0.141113 -0.07055,0.141111 -0.105834,0.105834 -0.141111,0.07055 -0.141111,0.03528 h -0.141029 l -0.141111,-0.03528 -0.105846,-0.10583 -1.023064,-1.023049 -0.03527,-0.03528 -0.07055,-0.03528 -0.03528,-0.03528 h -0.03528 l -0.03528,-0.03528 h -0.07056 -0.03528 l -0.03526,-1.5e-5 -0.634986,-4e-6 -0.03529,1.3e-5 h -0.03528 l -0.07056,0.03528 -0.03528,0.03528 v 0.03528 l -0.03528,0.03528 -0.03528,0.03528 8e-6,0.07053 3e-6,0.599708 -4e-6,0.0353 0.03528,0.07056 v 0.03528 0.03528 l 0.03528,0.07055 0.03528,0.03528 0.03528,0.03528 -5e-6,0.03527 1.058333,1.023046 0.07056,0.141108 0.07055,0.141111 v 0.141112 l -0.03528,0.141111 -0.07056,0.105833 -0.105833,0.105833 -0.141111,0.07056 -0.141107,0.03528 -0.352771,-7e-6 -0.07056,-4e-6 -0.105833,0.03528 -0.07056,0.03528 -0.105833,0.07056 -0.03528,0.07055 -0.07055,0.07056 v 0.105833 l -0.03527,0.105831 v 1.799153 l 0.03527,0.105824 v 0.07056 l 0.07055,0.105833 0.03528,0.07056 0.105833,0.07056 0.07056,0.03528 0.105833,0.03528 0.07056,-8e-6 0.42333,-9e-6 h 0.105834 l 0.07055,-0.03528 0.105833,-0.03528 0.07056,-0.07056 0.07055,-0.07056 0.03528,-0.105833 0.03528,-0.07056 1e-6,-0.10578 -6e-6,-0.599679 -6e-6,-0.03527 v -0.03528 l 0.03528,-0.03528 0.03528,-0.03528 0.03528,-0.03528 0.03528,-0.03528 h 0.03528 l 0.03527,7e-6 2.081308,6e-6 h 0.0705 l 0.10583,0.03528 0.0706,0.03528 0.0705,0.03528 0.0706,0.07055 0.0353,0.07056 0.0353,0.07055 0.0352,0.105834 0.31736,1.728606 v 1.481609 l -0.31736,1.763875 -0.0352,0.07055 -0.0353,0.105833 -0.0353,0.03528 -0.0706,0.07056 -0.0705,0.07056 -0.0706,0.03528 h -0.10583 l -0.0705,-8e-6 -2.081308,-3e-6 -0.03527,5e-6 h -0.03528 -0.03528 l -0.03528,-0.03528 -0.03528,-0.03528 -0.03528,-0.03528 v -0.03528 l 6e-6,-0.03527 7e-6,-0.599708 v -0.105825 l -0.03528,-0.105833 -0.03528,-0.07056 -0.07055,-0.07056 -0.07056,-0.07056 -0.105833,-0.03528 -0.07055,-0.03528 -0.105836,9e-6 h -0.423302 l -0.07056,-9e-6 -0.105833,0.03528 -0.07056,0.03528 -0.105833,0.07056 -0.03528,0.07056 -0.07055,0.07056 v 0.105833 l -0.03528,0.105825 v 1.799153 l 0.03528,0.10583 v 0.07055 l 0.07055,0.105833 0.03528,0.07056 0.105833,0.07056 0.07056,0.03528 0.105833,0.03528 0.07056,-4e-6 0.35277,-6e-6 0.141107,0.03528 0.141111,0.03528 0.105833,0.105833 0.07056,0.141111 0.03528,0.141111 v 0.141111 l -0.07055,0.141111 -0.07056,0.105832 -1.058332,1.05832 4e-6,0.03527 -0.03528,0.03528 -0.03528,0.03528 -0.03528,0.03528 v 0.07056 0.03528 l -0.03528,0.03528 -9e-6,0.07055 -4e-6,0.599708 6e-6,0.03528 0.03528,0.03528 0.03528,0.07055 v 0.03528 l 0.03528,0.03528 h 0.07056 l 0.03528,0.03528 0.03527,2e-6 0.634986,10e-7 h 0.03528 0.03528 l 0.07056,-0.03528 h 0.03528 l 0.03528,-0.03528 0.03528,-0.03528 h 0.07055 l 0.03527,-0.03528 1.02305,-1.058329 0.105833,-0.07055 0.141111,-0.07056 h 0.141111 l 0.141111,0.03528 0.141111,0.07056 0.105834,0.105834 0.07055,0.141111 2e-6,0.141103 1.48e-4,0.352765 1.45e-4,0.07054 0.03528,0.105834 0.07056,0.105833 0.03528,0.07055 0.07056,0.03528 0.105833,0.07056 0.105835,0.03528 0.0704,2.3e-5 h 1.79913 l 0.10592,-2.3e-5 0.10583,-0.03528 0.0706,-0.07056 0.0706,-0.03528 0.0705,-0.07055 0.0353,-0.105833 0.0353,-0.105834 0.0353,-0.07055 v -0.423336 l -0.0353,-0.07055 -0.0353,-0.105834 -0.0353,-0.105833 -0.0705,-0.07055 -0.0706,-0.03528 -0.0706,-0.07056 -0.10583,-0.03528 -0.10578,-10e-7 -0.59962,5e-6 -0.0352,6e-6 h -0.0353 l -0.0353,-0.03528 h -0.0353 v -0.03528 l -0.0353,-0.03528 v -0.03528 l 5e-5,-0.03527 3e-5,-2.116658 -2e-5,-0.07056 0.0353,-0.07055 0.0353,-0.105834 0.0353,-0.07056 0.0706,-0.03528 0.0705,-0.07055 0.0706,-0.03528 0.0705,-0.03528 1.76381,-0.317491 1.48117,1.9e-5 1.7637,0.317491 0.0705,0.03528 0.0706,0.03528 0.0706,0.07055 0.0706,0.03528 0.0353,0.07056 0.0353,0.105834 0.0353,0.07055 -1.2e-4,0.07056 -6e-5,2.116556 7e-5,0.03527 v 0.03528 l -0.0353,0.03528 -0.0353,0.03528 -0.0353,0.03528 h -0.0353 l -0.0705,-6e-6 -0.59967,-5e-6 -0.0705,10e-7 -0.10584,0.03528 -0.0705,0.07056 -0.10583,0.03528 -0.0353,0.07055 -0.0706,0.105833 v 0.105834 l -0.0353,0.07055 v 0.423336 l 0.0353,0.07055 v 0.105834 l 0.0706,0.105833 0.0353,0.07055 0.10583,0.03528 0.0705,0.07056 0.10584,0.03528 0.0706,5.6e-5 h 1.79918 l 0.10573,-5.6e-5 0.10584,-0.03528 0.0705,-0.07056 0.0706,-0.03528 0.0705,-0.07055 0.0706,-0.105833 v -0.105834 l 0.0353,-0.07055 2e-5,-0.352775 3e-5,-0.141107 0.0705,-0.141111 0.10584,-0.105834 0.10583,-0.07056 0.14111,-0.03528 h 0.17639 l 0.14111,0.07056 0.10585,0.07055 1.02298,1.058333 0.0352,0.03528 h 0.0353 l 0.0706,0.03528 0.0353,0.03528 h 0.0353 l 0.0706,0.03528 h 0.0353 l 0.0352,-4e-6 0.59957,-2e-6 0.0705,3e-6 0.0353,-0.03528 h 0.0353 l 0.0353,-0.03528 0.0353,-0.03528 0.0353,-0.07055 v -0.03528 l 0.0355,-0.03522 1e-5,-0.599708 -0.0355,-0.0706 v -0.03528 -0.03528 l -0.0353,-0.07056 v -0.03528 l -0.0353,-0.03528 -0.0353,-0.03528 -0.0352,-0.03527 -1.02302,-1.05832 -0.10586,-0.105832 -0.0353,-0.141111 v -0.141111 l 0.0353,-0.141111 0.0706,-0.141111 0.10583,-0.105833 0.14111,-0.03528 0.14109,-0.03528 0.31743,6e-6 0.10579,4e-6 0.10583,-0.03528 0.0706,-0.03528 0.0705,-0.07056 0.0706,-0.07056 0.0353,-0.105833 0.0353,-0.07055 0.0353,-0.10583 v -1.799153 l -0.0353,-0.105825 -0.0353,-0.105833 -0.0353,-0.07056 -0.0706,-0.07056 -0.0705,-0.07056 -0.0706,-0.03528 -0.10583,-0.03528 -0.10579,9e-6 h -0.38796 l -0.1058,-9e-6 -0.0706,0.03528 -0.10583,0.03528 -0.0706,0.07056 -0.0705,0.07056 -0.0353,0.07056 -0.0353,0.105833 4e-5,0.105825 9e-5,0.599708 7e-5,0.03527 -0.0353,0.03528 v 0.03528 l -0.0353,0.03528 -0.0353,0.03528 h -0.0353 -0.0353 l -0.0352,-5e-6 -2.0813,3e-6 -0.0705,8e-6 h -0.10583 l -0.0706,-0.03528 -0.0706,-0.07056 -0.0705,-0.07056 -0.0353,-0.03528 -0.0353,-0.105833 -0.0353,-0.07055 -0.31741,-1.763875 2e-4,-1.481609 0.31741,-1.728606 0.0353,-0.105834 0.0353,-0.07055 0.0353,-0.07056 0.0705,-0.07055 0.0706,-0.03528 0.0706,-0.03528 0.10583,-0.03528 h 0.0705 l 2.0813,-7e-6 0.0352,-6e-6 h 0.0353 l 0.0353,0.03528 0.0353,0.03528 0.0353,0.03528 v 0.03528 l 0.0353,0.03528 -6e-5,0.03527 -10e-5,0.599706 -4e-5,0.105825 0.0353,0.07056 0.0353,0.105833 0.0705,0.07056 0.0706,0.07056 0.10583,0.03528 0.0706,0.03528 0.1058,-9e-6 h 0.38796 l 0.10579,9e-6 0.10583,-0.03528 0.0706,-0.03528 0.0705,-0.07056 0.0706,-0.07056 0.0353,-0.105833 0.0353,-0.07056 0.0354,-0.105799 v -1.799163 l -0.0354,-0.105846 -0.0353,-0.105833 -0.0353,-0.07056 -0.0706,-0.07055 -0.0705,-0.07056 -0.0706,-0.03528 -0.10583,-0.03528 -0.10579,4e-6 -0.31743,7e-6 -0.14109,-0.03528 -0.14111,-0.07056 -0.10583,-0.105833 -0.0706,-0.105833 -0.0353,-0.141111 v -0.141112 l 0.0353,-0.141111 0.10586,-0.141108 1.02302,-1.023046 0.0352,-0.03527 0.0353,-0.03528 0.0353,-0.03528 v -0.07055 l 0.0353,-0.03528 v -0.03528 -0.07056 l 0.0354,-0.03527 -10e-6,-0.599709 -0.0354,-0.07056 v -0.03528 l -0.0353,-0.03528 -0.0353,-0.03528 -0.0353,-0.03528 -0.0353,-0.03528 h -0.0353 l -0.0705,7e-6 -0.59957,3e-6 -0.0352,-4e-6 h -0.0353 -0.0706 l -0.0353,0.03528 h -0.0353 l -0.0706,0.03528 -0.0353,0.03528 -0.0352,0.03528 -1.02297,1.023051 -0.10586,0.105833 -0.14111,0.03528 h -0.17639 l -0.14111,-0.03528 -0.10583,-0.07055 -0.10584,-0.105834 -0.0705,-0.141111 -2e-5,-0.141116 -2.6e-4,-0.317501 -0.0355,-0.105834 v -0.105834 l -0.0706,-0.07055 -0.0705,-0.07056 -0.0706,-0.07055 -0.0705,-0.03528 -0.10584,-0.03528 h -0.10536 -1.79941 z"
       style="opacity:1;vector-effect:none;fill:none;fill-opacity:1;stroke:#0000ff;stroke-width:0.35277775;stroke-linecap:butt;stroke-linejoin:miter;stroke-miterlimit:4;stroke-dasharray:none;stroke-dashoffset:0;stroke-opacity:1;marker:none"
       inkscape:connector-curvature="0"
       sodipodi:nodetypes="cccccccccccccccccccccccccccccccccccccccccccccccccccccccccccccccccccccccccccccccccccccccccccccccccccccccccccccccccccccccccccccccccccccccccccccccccccccccccccccccccccccccccccccccccccccccccccccccccccccccccccccccccccccccccccccccccccccccccccccccccccccccccccccccccccccccccccccccccccccccccccccccccccccccccccccccccccccccccccccccccccccccccccccccccccccccccccccccccccccccccccccccccccccccccccccccccccccccccccccccccccccccccccccccccccccccccccccccccccccccccccccccccccccccccccccccccccccccccccccccccccccccccccccccccccccccccccccccccccccccccccccccccccccccccccccccccccc" />
    <path
       sodipodi:nodetypes="cccccccccccccccccccccccccccccccccccccccccccccccccccccccccccccccccccccccccccccccccccccccccccccccccccccccccccccccccccccccccccccccccccccccccccccccccccccccccccccccccccccccccccccccccccccccccccccccccccccccccccccccccccccccccccccccccccccccccccccccccccccccccccccccccccccccccccccccccccccccccccccccccccccccccccccccccccccccccccccccccccccccccccccccccccccccccccccccccccccccccccccccccccccccccccccccccccccccccccccccccccccccccccccccccccccccccccccccccccccccccccccccccccccccccccccccccccccccccccccccccccccccccccccccccccccccccccccccccccccccccccccccccccccccccccccccccccc"
       inkscape:connector-curvature="0"
       style="opacity:1;vector-effect:none;fill:none;fill-opacity:1;stroke:#0000ff;stroke-width:0.35277775;stroke-linecap:butt;stroke-linejoin:miter;stroke-miterlimit:4;stroke-dasharray:none;stroke-dashoffset:0;stroke-opacity:1;marker:none"
       d="m 134.24175,38.049991 -0.10584,0.03528 -0.0705,0.03528 -0.10583,0.07055 -0.0353,0.07056 -0.0706,0.07055 v 0.105834 l -0.0353,0.105834 v 0.388089 l 0.0353,0.105829 v 0.105833 l 0.0706,0.07056 0.0353,0.07055 0.10583,0.07056 0.0705,0.03528 0.10584,0.03528 0.0705,-3e-6 0.59967,-1.1e-5 0.0705,-7e-6 0.0353,0.03528 h 0.0353 v 0.03528 l 0.0353,0.03528 0.0353,0.03528 v 0.03528 l -7e-5,0.03527 6e-5,2.081375 1.2e-4,0.105826 -0.0353,0.07056 -0.0353,0.07056 -0.0353,0.07055 -0.0706,0.07056 -0.0706,0.03528 -0.0706,0.03528 -0.0705,0.03527 -1.76371,0.352766 h -1.48125 l -1.76381,-0.352761 -0.0705,-0.03527 -0.0706,-0.03528 -0.0705,-0.03528 -0.0706,-0.07056 -0.0353,-0.07055 -0.0353,-0.07056 -0.0353,-0.07056 2e-5,-0.10583 -3e-5,-2.081371 -5e-5,-0.03527 v -0.03528 l 0.0353,-0.03528 v -0.03528 l 0.0353,-0.03528 h 0.0353 l 0.0353,-0.03528 0.0352,7e-6 0.59962,1.1e-5 0.10578,3e-6 0.10583,-0.03528 0.0706,-0.03528 0.0706,-0.07056 0.0705,-0.07055 0.0353,-0.07056 0.0353,-0.105833 0.0353,-0.105829 v -0.388054 l -0.0353,-0.105834 -0.0353,-0.105834 -0.0353,-0.07055 -0.0705,-0.07056 -0.0706,-0.07055 -0.0706,-0.03528 -0.10583,-0.03528 -0.1058,-2.2e-5 h -1.79914 l -0.0705,2.2e-5 -0.10584,0.03528 -0.10583,0.03528 -0.0706,0.07055 -0.0353,0.07056 -0.0706,0.07055 -0.0353,0.105834 -2e-5,0.105834 -3e-5,0.317504 -2e-5,0.141113 -0.0705,0.141111 -0.10583,0.105834 -0.14111,0.07055 -0.14111,0.03528 h -0.14103 l -0.14111,-0.03528 -0.10585,-0.10583 -1.02306,-1.023049 -0.0353,-0.03528 -0.0705,-0.03528 -0.0353,-0.03528 h -0.0353 l -0.0353,-0.03528 h -0.0706 -0.0353 l -0.0353,-1.5e-5 -0.63499,-4e-6 -0.0353,1.3e-5 h -0.0353 l -0.0706,0.03528 -0.0353,0.03528 v 0.03528 l -0.0353,0.03528 -0.0353,0.03528 1e-5,0.07053 0,0.599708 0,0.0353 0.0353,0.07056 v 0.03528 0.03528 l 0.0353,0.07055 0.0353,0.03528 0.0353,0.03528 -1e-5,0.03527 1.05834,1.023046 0.0706,0.141108 0.0705,0.141111 v 0.141112 l -0.0353,0.141111 -0.0706,0.105833 -0.10584,0.105833 -0.14111,0.07056 -0.1411,0.03528 -0.35277,-7e-6 -0.0706,-4e-6 -0.10584,0.03528 -0.0706,0.03528 -0.10583,0.07056 -0.0353,0.07055 -0.0705,0.07056 v 0.105833 l -0.0353,0.105831 v 1.799153 l 0.0353,0.105824 v 0.07056 l 0.0705,0.105833 0.0353,0.07056 0.10583,0.07056 0.0706,0.03528 0.10584,0.03528 0.0706,-8e-6 0.42333,-9e-6 h 0.10583 l 0.0705,-0.03528 0.10583,-0.03528 0.0706,-0.07056 0.0706,-0.07056 0.0353,-0.105833 0.0353,-0.07056 0,-0.10578 0,-0.599679 -1e-5,-0.03527 v -0.03528 l 0.0353,-0.03528 0.0353,-0.03528 0.0353,-0.03528 0.0353,-0.03528 h 0.0353 l 0.0353,7e-6 2.08131,6e-6 h 0.0705 l 0.10583,0.03528 0.0706,0.03528 0.0705,0.03528 0.0706,0.07055 0.0353,0.07056 0.0353,0.07055 0.0352,0.105834 0.31736,1.728606 v 1.481609 l -0.31736,1.763875 -0.0352,0.07055 -0.0353,0.105833 -0.0353,0.03528 -0.0706,0.07056 -0.0705,0.07056 -0.0706,0.03528 h -0.10583 l -0.0705,-8e-6 -2.08131,-3e-6 -0.0353,5e-6 h -0.0353 -0.0353 l -0.0353,-0.03528 -0.0353,-0.03528 -0.0353,-0.03528 v -0.03528 l 1e-5,-0.03527 0,-0.599708 v -0.105825 l -0.0353,-0.105833 -0.0353,-0.07056 -0.0706,-0.07056 -0.0706,-0.07056 -0.10583,-0.03528 -0.0705,-0.03528 -0.10583,9e-6 h -0.42331 l -0.0706,-9e-6 -0.10583,0.03528 -0.0706,0.03528 -0.10583,0.07056 -0.0353,0.07056 -0.0706,0.07056 v 0.105833 l -0.0353,0.105825 v 1.799153 l 0.0353,0.10583 v 0.07055 l 0.0706,0.105833 0.0353,0.07056 0.10583,0.07056 0.0706,0.03528 0.10583,0.03528 0.0706,-4e-6 0.35277,-6e-6 0.14111,0.03528 0.14111,0.03528 0.10583,0.105833 0.0706,0.141111 0.0353,0.141111 v 0.141111 l -0.0705,0.141111 -0.0706,0.105832 -1.05833,1.05832 10e-6,0.03527 -0.0353,0.03528 -0.0353,0.03528 -0.0353,0.03528 v 0.07056 0.03528 l -0.0353,0.03528 -10e-6,0.07055 -1e-5,0.599708 1e-5,0.03528 0.0353,0.03528 0.0353,0.07055 v 0.03528 l 0.0353,0.03528 h 0.0706 l 0.0353,0.03528 0.0353,2e-6 0.63499,10e-7 h 0.0353 0.0353 l 0.0706,-0.03528 h 0.0353 l 0.0353,-0.03528 0.0353,-0.03528 h 0.0705 l 0.0353,-0.03528 1.02305,-1.058329 0.10583,-0.07055 0.14111,-0.07056 h 0.14111 l 0.14111,0.03528 0.14111,0.07056 0.10584,0.105834 0.0705,0.141111 0,0.141103 1.5e-4,0.352765 1.4e-4,0.07054 0.0353,0.105834 0.0706,0.105833 0.0353,0.07055 0.0706,0.03528 0.10583,0.07056 0.10584,0.03528 0.0704,2.3e-5 h 1.79913 l 0.10592,-2.3e-5 0.10583,-0.03528 0.0706,-0.07056 0.0706,-0.03528 0.0705,-0.07055 0.0353,-0.105833 0.0353,-0.105834 0.0353,-0.07055 v -0.423336 l -0.0353,-0.07055 -0.0353,-0.105834 -0.0353,-0.105833 -0.0705,-0.07055 -0.0706,-0.03528 -0.0706,-0.07056 -0.10583,-0.03528 -0.10578,-10e-7 -0.59962,5e-6 -0.0352,6e-6 h -0.0353 l -0.0353,-0.03528 h -0.0353 v -0.03528 l -0.0353,-0.03528 v -0.03528 l 5e-5,-0.03527 3e-5,-2.116658 -2e-5,-0.07056 0.0353,-0.07055 0.0353,-0.105834 0.0353,-0.07056 0.0706,-0.03528 0.0705,-0.07055 0.0706,-0.03528 0.0705,-0.03528 1.76381,-0.317491 1.48117,1.9e-5 1.7637,0.317491 0.0705,0.03528 0.0706,0.03528 0.0706,0.07055 0.0706,0.03528 0.0353,0.07056 0.0353,0.105834 0.0353,0.07055 -1.2e-4,0.07056 -6e-5,2.116556 7e-5,0.03527 v 0.03528 l -0.0353,0.03528 -0.0353,0.03528 -0.0353,0.03528 h -0.0353 l -0.0705,-6e-6 -0.59967,-5e-6 -0.0705,10e-7 -0.10584,0.03528 -0.0705,0.07056 -0.10583,0.03528 -0.0353,0.07055 -0.0706,0.105833 v 0.105834 l -0.0353,0.07055 v 0.423336 l 0.0353,0.07055 v 0.105834 l 0.0706,0.105833 0.0353,0.07055 0.10583,0.03528 0.0705,0.07056 0.10584,0.03528 0.0706,5.6e-5 h 1.79918 l 0.10573,-5.6e-5 0.10584,-0.03528 0.0705,-0.07056 0.0706,-0.03528 0.0705,-0.07055 0.0706,-0.105833 v -0.105834 l 0.0353,-0.07055 2e-5,-0.352775 3e-5,-0.141107 0.0705,-0.141111 0.10584,-0.105834 0.10583,-0.07056 0.14111,-0.03528 h 0.17639 l 0.14111,0.07056 0.10585,0.07055 1.02298,1.058333 0.0352,0.03528 h 0.0353 l 0.0706,0.03528 0.0353,0.03528 h 0.0353 l 0.0706,0.03528 h 0.0353 l 0.0352,-4e-6 0.59957,-2e-6 0.0705,3e-6 0.0353,-0.03528 h 0.0353 l 0.0353,-0.03528 0.0353,-0.03528 0.0353,-0.07055 v -0.03528 l 0.0355,-0.03522 1e-5,-0.599708 -0.0355,-0.0706 v -0.03528 -0.03528 l -0.0353,-0.07056 v -0.03528 l -0.0353,-0.03528 -0.0353,-0.03528 -0.0352,-0.03527 -1.02302,-1.05832 -0.10586,-0.105832 -0.0353,-0.141111 v -0.141111 l 0.0353,-0.141111 0.0706,-0.141111 0.10583,-0.105833 0.14111,-0.03528 0.14109,-0.03528 0.31743,6e-6 0.10579,4e-6 0.10583,-0.03528 0.0706,-0.03528 0.0705,-0.07056 0.0706,-0.07056 0.0353,-0.105833 0.0353,-0.07055 0.0353,-0.10583 v -1.799153 l -0.0353,-0.105825 -0.0353,-0.105833 -0.0353,-0.07056 -0.0706,-0.07056 -0.0705,-0.07056 -0.0706,-0.03528 -0.10583,-0.03528 -0.10579,9e-6 h -0.38796 l -0.1058,-9e-6 -0.0706,0.03528 -0.10583,0.03528 -0.0706,0.07056 -0.0705,0.07056 -0.0353,0.07056 -0.0353,0.105833 4e-5,0.105825 9e-5,0.599708 7e-5,0.03527 -0.0353,0.03528 v 0.03528 l -0.0353,0.03528 -0.0353,0.03528 h -0.0353 -0.0353 l -0.0352,-5e-6 -2.0813,3e-6 -0.0705,8e-6 h -0.10583 l -0.0706,-0.03528 -0.0706,-0.07056 -0.0705,-0.07056 -0.0353,-0.03528 -0.0353,-0.105833 -0.0353,-0.07055 -0.31741,-1.763875 2e-4,-1.481609 0.31741,-1.728606 0.0353,-0.105834 0.0353,-0.07055 0.0353,-0.07056 0.0705,-0.07055 0.0706,-0.03528 0.0706,-0.03528 0.10583,-0.03528 h 0.0705 l 2.0813,-7e-6 0.0352,-6e-6 h 0.0353 l 0.0353,0.03528 0.0353,0.03528 0.0353,0.03528 v 0.03528 l 0.0353,0.03528 -6e-5,0.03527 -10e-5,0.599706 -4e-5,0.105825 0.0353,0.07056 0.0353,0.105833 0.0705,0.07056 0.0706,0.07056 0.10583,0.03528 0.0706,0.03528 0.1058,-9e-6 h 0.38796 l 0.10579,9e-6 0.10583,-0.03528 0.0706,-0.03528 0.0705,-0.07056 0.0706,-0.07056 0.0353,-0.105833 0.0353,-0.07056 0.0354,-0.105799 v -1.799163 l -0.0354,-0.105846 -0.0353,-0.105833 -0.0353,-0.07056 -0.0706,-0.07055 -0.0705,-0.07056 -0.0706,-0.03528 -0.10583,-0.03528 -0.10579,4e-6 -0.31743,7e-6 -0.14109,-0.03528 -0.14111,-0.07056 -0.10583,-0.105833 -0.0706,-0.105833 -0.0353,-0.141111 v -0.141112 l 0.0353,-0.141111 0.10586,-0.141108 1.02302,-1.023046 0.0352,-0.03527 0.0353,-0.03528 0.0353,-0.03528 v -0.07055 l 0.0353,-0.03528 v -0.03528 -0.07056 l 0.0354,-0.03527 -1e-5,-0.599709 -0.0354,-0.07056 v -0.03528 l -0.0353,-0.03528 -0.0353,-0.03528 -0.0353,-0.03528 -0.0353,-0.03528 h -0.0353 l -0.0705,7e-6 -0.59957,3e-6 -0.0352,-4e-6 h -0.0353 -0.0706 l -0.0353,0.03528 h -0.0353 l -0.0706,0.03528 -0.0353,0.03528 -0.0352,0.03528 -1.02297,1.023051 -0.10586,0.105833 -0.14111,0.03528 h -0.17639 l -0.14111,-0.03528 -0.10583,-0.07055 -0.10584,-0.105834 -0.0705,-0.141111 -2e-5,-0.141116 -2.6e-4,-0.317501 -0.0355,-0.105834 v -0.105834 l -0.0706,-0.07055 -0.0705,-0.07056 -0.0706,-0.07055 -0.0705,-0.03528 -0.10584,-0.03528 h -0.10536 -1.79941 z"
       id="path1868" />
    <path
       sodipodi:nodetypes="cccccccccccccccccccccccccccccccccccccccccccccccccccccccccccccccccccccccccccccccccccccccccccccccccccccccccccccccccccccccccccccccccccccccccccccccccccccccccccccccccccccccccccccccccccccccccccccccccccccccccccccccccccccccccccccccccccccccccccccccccccccccccccccccccccccccccccccccccccccccccccccccccccccccccccccccccccccccccccccccccccccccccccccccccccccccccccccccccccccccccccccccccccccccccccccccccccccccccccccccccccccccccccccccccccccccccccccccccccccccccccccccccccccccccccccccccccccccccccccccccccccccccccccccccccccccccccccccccccccccccccccccccccccccccccccccccccc"
       inkscape:connector-curvature="0"
       style="opacity:1;vector-effect:none;fill:none;fill-opacity:1;stroke:#0000ff;stroke-width:0.35277775;stroke-linecap:butt;stroke-linejoin:miter;stroke-miterlimit:4;stroke-dasharray:none;stroke-dashoffset:0;stroke-opacity:1;marker:none"
       d="m 39.935773,160.5932 -0.10584,0.0353 -0.0705,0.0353 -0.10583,0.0705 -0.0353,0.0706 -0.0706,0.0705 v 0.10583 l -0.0353,0.10583 v 0.38809 l 0.0353,0.10583 v 0.10584 l 0.0706,0.0706 0.0353,0.0705 0.10583,0.0706 0.0705,0.0353 0.10584,0.0353 0.0705,-1e-5 0.59967,-1e-5 0.0705,-1e-5 0.0353,0.0353 h 0.0353 v 0.0353 l 0.0353,0.0353 0.0353,0.0353 v 0.0353 l -7e-5,0.0353 6e-5,2.08138 1.2e-4,0.10583 -0.0353,0.0706 -0.0353,0.0706 -0.0353,0.0705 -0.0706,0.0706 -0.0706,0.0353 -0.0706,0.0353 -0.0705,0.0353 -1.76371,0.35276 h -1.48125 l -1.76381,-0.35276 -0.0705,-0.0353 -0.0706,-0.0353 -0.0705,-0.0353 -0.0706,-0.0706 -0.0353,-0.0705 -0.0353,-0.0706 -0.0353,-0.0706 2e-5,-0.10583 -3e-5,-2.08137 -5e-5,-0.0353 v -0.0353 l 0.0353,-0.0353 v -0.0353 l 0.0353,-0.0353 h 0.0353 l 0.0353,-0.0353 0.0352,1e-5 0.59962,1e-5 h 0.10578 l 0.10583,-0.0353 0.0706,-0.0353 0.0706,-0.0706 0.0705,-0.0705 0.0353,-0.0706 0.0353,-0.10583 0.0353,-0.10583 v -0.38806 l -0.0353,-0.10583 -0.0353,-0.10583 -0.0353,-0.0705 -0.0705,-0.0706 -0.0706,-0.0705 -0.0706,-0.0353 -0.10583,-0.0353 -0.1058,-3e-5 h -1.79914 l -0.0705,3e-5 -0.105838,0.0353 -0.105833,0.0353 -0.07056,0.0705 -0.03528,0.0706 -0.07056,0.0705 -0.03528,0.10583 -1.9e-5,0.10583 -3.2e-5,0.31751 -1.3e-5,0.14111 -0.07055,0.14111 -0.105834,0.10584 -0.141111,0.0705 -0.141111,0.0353 h -0.141029 l -0.141111,-0.0353 -0.105846,-0.10583 -1.023064,-1.02305 -0.03527,-0.0353 -0.07055,-0.0353 -0.03528,-0.0353 h -0.03528 l -0.03528,-0.0353 h -0.07056 -0.03528 l -0.03526,-2e-5 h -0.634986 l -0.03529,10e-6 h -0.03528 l -0.07056,0.0353 -0.03528,0.0353 v 0.0353 l -0.03528,0.0353 -0.03528,0.0353 8e-6,0.0705 3e-6,0.59971 -4e-6,0.0353 0.03528,0.0706 v 0.0353 0.0353 l 0.03528,0.0705 0.03528,0.0353 0.03528,0.0353 -5e-6,0.0353 1.058333,1.02305 0.07056,0.1411 0.07055,0.14111 v 0.14112 l -0.03528,0.14111 -0.07056,0.10583 -0.105833,0.10583 -0.141111,0.0706 -0.141107,0.0353 h -0.352771 l -0.07056,-1e-5 -0.105833,0.0353 -0.07056,0.0353 -0.105833,0.0706 -0.03528,0.0705 -0.07055,0.0706 v 0.10584 l -0.03527,0.10583 v 1.79915 l 0.03527,0.10582 v 0.0706 l 0.07055,0.10584 0.03528,0.0706 0.105833,0.0706 0.07056,0.0353 0.105833,0.0353 0.07056,-1e-5 0.42333,-1e-5 h 0.105834 l 0.07055,-0.0353 0.105833,-0.0353 0.07056,-0.0706 0.07055,-0.0706 0.03528,-0.10583 0.03528,-0.0706 1e-6,-0.10578 -6e-6,-0.59968 -6e-6,-0.0353 v -0.0353 l 0.03528,-0.0353 0.03528,-0.0353 0.03528,-0.0353 0.03528,-0.0353 h 0.03528 0.03527 l 2.081308,1e-5 h 0.0705 l 0.10583,0.0353 0.0706,0.0353 0.0705,0.0353 0.0706,0.0705 0.0353,0.0706 0.0353,0.0705 0.0352,0.10583 0.31736,1.72861 v 1.48161 l -0.31736,1.76387 -0.0352,0.0705 -0.0353,0.10584 -0.0353,0.0353 -0.0706,0.0706 -0.0705,0.0706 -0.0706,0.0353 h -0.10583 l -0.0705,-1e-5 h -2.081308 -0.03527 -0.03528 -0.03528 l -0.03528,-0.0353 -0.03528,-0.0353 -0.03528,-0.0353 v -0.0353 l 6e-6,-0.0353 7e-6,-0.59971 v -0.10582 l -0.03528,-0.10583 -0.03528,-0.0706 -0.07055,-0.0706 -0.07056,-0.0706 -0.105833,-0.0353 -0.07055,-0.0353 h -0.105836 -0.423302 -0.07056 l -0.105833,0.0353 -0.07056,0.0353 -0.105833,0.0706 -0.03528,0.0706 -0.07055,0.0706 v 0.10583 l -0.03528,0.10582 v 1.79916 l 0.03528,0.10583 v 0.0705 l 0.07055,0.10583 0.03528,0.0706 0.105833,0.0706 0.07056,0.0353 0.105833,0.0353 h 0.07056 l 0.35277,-10e-6 0.141107,0.0353 0.141111,0.0353 0.105833,0.10583 0.07056,0.14111 0.03528,0.14111 v 0.14112 l -0.07055,0.14111 -0.07056,0.10583 -1.058332,1.05832 4e-6,0.0353 -0.03528,0.0353 -0.03528,0.0353 -0.03528,0.0353 v 0.0706 0.0353 l -0.03528,0.0353 -9e-6,0.0705 -4e-6,0.59971 6e-6,0.0353 0.03528,0.0353 0.03528,0.0705 v 0.0353 l 0.03528,0.0353 h 0.07056 l 0.03528,0.0353 h 0.03527 0.634986 0.03528 0.03528 l 0.07056,-0.0353 h 0.03528 l 0.03528,-0.0353 0.03528,-0.0353 h 0.07055 l 0.03527,-0.0353 1.02305,-1.05833 0.105833,-0.0705 0.141111,-0.0706 h 0.141111 l 0.141111,0.0353 0.141111,0.0706 0.105834,0.10583 0.07055,0.14112 2e-6,0.1411 1.48e-4,0.35276 1.45e-4,0.0705 0.03528,0.10584 0.07056,0.10583 0.03528,0.0705 0.07056,0.0353 0.105833,0.0706 0.105835,0.0353 0.0704,2e-5 h 1.79913 l 0.10592,-2e-5 0.10583,-0.0353 0.0706,-0.0706 0.0706,-0.0353 0.0705,-0.0705 0.0353,-0.10583 0.0353,-0.10584 0.0353,-0.0705 v -0.42333 l -0.0353,-0.0705 -0.0353,-0.10584 -0.0353,-0.10583 -0.0705,-0.0706 -0.0706,-0.0353 -0.0706,-0.0706 -0.10583,-0.0353 h -0.10578 -0.59962 l -0.0352,1e-5 h -0.0353 l -0.0353,-0.0353 h -0.0353 v -0.0353 l -0.0353,-0.0353 v -0.0353 l 5e-5,-0.0353 3e-5,-2.11666 -2e-5,-0.0706 0.0353,-0.0705 0.0353,-0.10583 0.0353,-0.0706 0.0706,-0.0353 0.0705,-0.0705 0.0706,-0.0353 0.0705,-0.0353 1.76381,-0.31749 1.48117,2e-5 1.7637,0.31749 0.0705,0.0353 0.0706,0.0353 0.0706,0.0705 0.0706,0.0353 0.0353,0.0706 0.0353,0.10583 0.0353,0.0705 -1.2e-4,0.0706 -6e-5,2.11656 7e-5,0.0353 v 0.0353 l -0.0353,0.0353 -0.0353,0.0353 -0.0353,0.0353 h -0.0353 l -0.0705,-1e-5 h -0.59967 -0.0705 l -0.10584,0.0353 -0.0705,0.0706 -0.10583,0.0353 -0.0353,0.0705 -0.0706,0.10583 v 0.10583 l -0.0353,0.0705 v 0.42334 l 0.0353,0.0705 v 0.10583 l 0.0706,0.10584 0.0353,0.0705 0.10583,0.0353 0.0705,0.0706 0.10584,0.0353 0.0706,5e-5 h 1.79918 l 0.10573,-5e-5 0.10584,-0.0353 0.0705,-0.0706 0.0706,-0.0353 0.0705,-0.0705 0.0706,-0.10584 v -0.10583 l 0.0353,-0.0705 2e-5,-0.35277 3e-5,-0.14111 0.0705,-0.14111 0.10584,-0.10584 0.10583,-0.0706 0.14111,-0.0353 h 0.17639 l 0.14111,0.0706 0.10585,0.0706 1.02298,1.05834 0.0352,0.0353 h 0.0353 l 0.0706,0.0353 0.0353,0.0353 h 0.0353 l 0.0706,0.0353 h 0.0353 l 0.0352,-1e-5 h 0.59957 0.0705 l 0.0353,-0.0353 h 0.0353 l 0.0353,-0.0353 0.0353,-0.0353 0.0353,-0.0705 v -0.0353 l 0.0355,-0.0352 1e-5,-0.5997 -0.0355,-0.0706 v -0.0353 -0.0353 l -0.0353,-0.0706 v -0.0353 l -0.0353,-0.0353 -0.0353,-0.0353 -0.0352,-0.0353 -1.02302,-1.05832 -0.10586,-0.10584 -0.0353,-0.14111 v -0.14111 l 0.0353,-0.14111 0.0706,-0.14111 0.10583,-0.10583 0.14111,-0.0353 0.14109,-0.0353 h 0.31743 l 0.10579,10e-6 0.10583,-0.0353 0.0706,-0.0353 0.0705,-0.0706 0.0706,-0.0706 0.0353,-0.10584 0.0353,-0.0705 0.0353,-0.10583 v -1.79915 l -0.0353,-0.10582 -0.0353,-0.10584 -0.0353,-0.0706 -0.0706,-0.0706 -0.0705,-0.0706 -0.0706,-0.0353 -0.10583,-0.0353 -0.10579,1e-5 h -0.38796 l -0.1058,-1e-5 -0.0706,0.0353 -0.10583,0.0353 -0.0706,0.0706 -0.0705,0.0706 -0.0353,0.0706 -0.0353,0.10584 4e-5,0.10582 9e-5,0.59971 7e-5,0.0353 -0.0353,0.0353 v 0.0353 l -0.0353,0.0353 -0.0353,0.0353 h -0.0353 -0.0353 l -0.0352,-1e-5 -2.0813,1e-5 h -0.0705 -0.10583 l -0.0706,-0.0353 -0.0706,-0.0706 -0.0705,-0.0706 -0.0353,-0.0353 -0.0353,-0.10583 -0.0353,-0.0705 -0.31741,-1.76387 2e-4,-1.48161 0.31741,-1.72861 0.0353,-0.10583 0.0353,-0.0705 0.0353,-0.0706 0.0705,-0.0705 0.0706,-0.0353 0.0706,-0.0353 0.10583,-0.0353 h 0.0705 l 2.0813,-1e-5 0.0352,-10e-6 h 0.0353 l 0.0353,0.0353 0.0353,0.0353 0.0353,0.0353 v 0.0353 l 0.0353,0.0353 -6e-5,0.0353 -10e-5,0.59971 -4e-5,0.10583 0.0353,0.0706 0.0353,0.10583 0.0705,0.0706 0.0706,0.0706 0.10583,0.0353 0.0706,0.0353 0.1058,-1e-5 h 0.38796 l 0.10579,1e-5 0.10583,-0.0353 0.0706,-0.0353 0.0705,-0.0706 0.0706,-0.0706 0.0353,-0.10583 0.0353,-0.0706 0.0354,-0.1058 v -1.79917 l -0.0354,-0.10584 -0.0353,-0.10584 -0.0353,-0.0706 -0.0706,-0.0705 -0.0705,-0.0706 -0.0706,-0.0353 -0.10583,-0.0353 -0.10579,1e-5 -0.31743,1e-5 -0.14109,-0.0353 -0.14111,-0.0706 -0.10583,-0.10584 -0.0706,-0.10583 -0.0353,-0.14111 v -0.14111 l 0.0353,-0.14111 0.10586,-0.14111 1.02302,-1.02305 0.0352,-0.0353 0.0353,-0.0353 0.0353,-0.0353 v -0.0705 l 0.0353,-0.0353 v -0.0353 -0.0706 l 0.0354,-0.0353 -10e-6,-0.59971 -0.0354,-0.0706 v -0.0353 l -0.0353,-0.0353 -0.0353,-0.0353 -0.0353,-0.0353 -0.0353,-0.0353 h -0.0353 l -0.0705,1e-5 h -0.59957 -0.0352 -0.0353 -0.0706 l -0.0353,0.0353 h -0.0353 l -0.0706,0.0353 -0.0353,0.0353 -0.0352,0.0353 -1.02297,1.02305 -0.10586,0.10583 -0.14111,0.0353 h -0.17639 l -0.14111,-0.0353 -0.10583,-0.0705 -0.10584,-0.10583 -0.0705,-0.14111 -2e-5,-0.14112 -2.6e-4,-0.3175 -0.0355,-0.10583 v -0.10584 l -0.0706,-0.0705 -0.0705,-0.0706 -0.0706,-0.0705 -0.0705,-0.0353 -0.10584,-0.0353 h -0.10536 -1.79941 z"
       id="path1870" />
    <path
       id="path1872"
       d="m 134.24175,160.5932 -0.10584,0.0353 -0.0705,0.0353 -0.10583,0.0705 -0.0353,0.0706 -0.0706,0.0705 v 0.10583 l -0.0353,0.10583 v 0.38809 l 0.0353,0.10583 v 0.10584 l 0.0706,0.0706 0.0353,0.0705 0.10583,0.0706 0.0705,0.0353 0.10584,0.0353 0.0705,-1e-5 0.59967,-1e-5 0.0705,-1e-5 0.0353,0.0353 h 0.0353 v 0.0353 l 0.0353,0.0353 0.0353,0.0353 v 0.0353 l -7e-5,0.0353 6e-5,2.08138 1.2e-4,0.10583 -0.0353,0.0706 -0.0353,0.0706 -0.0353,0.0705 -0.0706,0.0706 -0.0706,0.0353 -0.0706,0.0353 -0.0705,0.0353 -1.76371,0.35276 h -1.48125 l -1.76381,-0.35276 -0.0705,-0.0353 -0.0706,-0.0353 -0.0705,-0.0353 -0.0706,-0.0706 -0.0353,-0.0705 -0.0353,-0.0706 -0.0353,-0.0706 2e-5,-0.10583 -3e-5,-2.08137 -5e-5,-0.0353 v -0.0353 l 0.0353,-0.0353 v -0.0353 l 0.0353,-0.0353 h 0.0353 l 0.0353,-0.0353 0.0352,1e-5 0.59962,1e-5 h 0.10578 l 0.10583,-0.0353 0.0706,-0.0353 0.0706,-0.0706 0.0705,-0.0705 0.0353,-0.0706 0.0353,-0.10583 0.0353,-0.10583 v -0.38806 l -0.0353,-0.10583 -0.0353,-0.10583 -0.0353,-0.0705 -0.0705,-0.0706 -0.0706,-0.0705 -0.0706,-0.0353 -0.10583,-0.0353 -0.1058,-3e-5 h -1.79914 l -0.0705,3e-5 -0.10584,0.0353 -0.10583,0.0353 -0.0706,0.0705 -0.0353,0.0706 -0.0706,0.0705 -0.0353,0.10583 -2e-5,0.10583 -3e-5,0.31751 -2e-5,0.14111 -0.0705,0.14111 -0.10583,0.10584 -0.14111,0.0705 -0.14111,0.0353 h -0.14103 l -0.14111,-0.0353 -0.10585,-0.10583 -1.02306,-1.02305 -0.0353,-0.0353 -0.0705,-0.0353 -0.0353,-0.0353 h -0.0353 l -0.0353,-0.0353 h -0.0706 -0.0353 l -0.0353,-2e-5 h -0.63499 l -0.0353,10e-6 h -0.0353 l -0.0706,0.0353 -0.0353,0.0353 v 0.0353 l -0.0353,0.0353 -0.0353,0.0353 1e-5,0.0705 0,0.59971 0,0.0353 0.0353,0.0706 v 0.0353 0.0353 l 0.0353,0.0705 0.0353,0.0353 0.0353,0.0353 -1e-5,0.0353 1.05834,1.02305 0.0706,0.1411 0.0705,0.14111 v 0.14112 l -0.0353,0.14111 -0.0706,0.10583 -0.10584,0.10583 -0.14111,0.0706 -0.1411,0.0353 h -0.35277 l -0.0706,-1e-5 -0.10584,0.0353 -0.0706,0.0353 -0.10583,0.0706 -0.0353,0.0705 -0.0705,0.0706 v 0.10584 l -0.0353,0.10583 v 1.79915 l 0.0353,0.10582 v 0.0706 l 0.0705,0.10584 0.0353,0.0706 0.10583,0.0706 0.0706,0.0353 0.10584,0.0353 0.0706,-1e-5 0.42333,-1e-5 h 0.10583 l 0.0705,-0.0353 0.10583,-0.0353 0.0706,-0.0706 0.0706,-0.0706 0.0353,-0.10583 0.0353,-0.0706 0,-0.10578 0,-0.59968 -1e-5,-0.0353 v -0.0353 l 0.0353,-0.0353 0.0353,-0.0353 0.0353,-0.0353 0.0353,-0.0353 h 0.0353 0.0353 l 2.08131,1e-5 h 0.0705 l 0.10583,0.0353 0.0706,0.0353 0.0705,0.0353 0.0706,0.0705 0.0353,0.0706 0.0353,0.0705 0.0352,0.10583 0.31736,1.72861 v 1.48161 l -0.31736,1.76387 -0.0352,0.0705 -0.0353,0.10584 -0.0353,0.0353 -0.0706,0.0706 -0.0705,0.0706 -0.0706,0.0353 h -0.10583 l -0.0705,-1e-5 h -2.08131 -0.0353 -0.0353 -0.0353 l -0.0353,-0.0353 -0.0353,-0.0353 -0.0353,-0.0353 v -0.0353 l 1e-5,-0.0353 0,-0.59971 v -0.10582 l -0.0353,-0.10583 -0.0353,-0.0706 -0.0706,-0.0706 -0.0706,-0.0706 -0.10583,-0.0353 -0.0705,-0.0353 h -0.10583 -0.42331 -0.0706 l -0.10583,0.0353 -0.0706,0.0353 -0.10583,0.0706 -0.0353,0.0706 -0.0706,0.0706 v 0.10583 l -0.0353,0.10582 v 1.79916 l 0.0353,0.10583 v 0.0705 l 0.0706,0.10583 0.0353,0.0706 0.10583,0.0706 0.0706,0.0353 0.10583,0.0353 h 0.0706 l 0.35277,-10e-6 0.14111,0.0353 0.14111,0.0353 0.10583,0.10583 0.0706,0.14111 0.0353,0.14111 v 0.14112 l -0.0705,0.14111 -0.0706,0.10583 -1.05833,1.05832 10e-6,0.0353 -0.0353,0.0353 -0.0353,0.0353 -0.0353,0.0353 v 0.0706 0.0353 l -0.0353,0.0353 -10e-6,0.0705 -1e-5,0.59971 1e-5,0.0353 0.0353,0.0353 0.0353,0.0705 v 0.0353 l 0.0353,0.0353 h 0.0706 l 0.0353,0.0353 h 0.0353 0.63499 0.0353 0.0353 l 0.0706,-0.0353 h 0.0353 l 0.0353,-0.0353 0.0353,-0.0353 h 0.0705 l 0.0353,-0.0353 1.02305,-1.05833 0.10583,-0.0705 0.14111,-0.0706 h 0.14111 l 0.14111,0.0353 0.14111,0.0706 0.10584,0.10583 0.0705,0.14112 0,0.1411 1.5e-4,0.35276 1.4e-4,0.0705 0.0353,0.10584 0.0706,0.10583 0.0353,0.0705 0.0706,0.0353 0.10583,0.0706 0.10584,0.0353 0.0704,2e-5 h 1.79913 l 0.10592,-2e-5 0.10583,-0.0353 0.0706,-0.0706 0.0706,-0.0353 0.0705,-0.0705 0.0353,-0.10583 0.0353,-0.10584 0.0353,-0.0705 v -0.42333 l -0.0353,-0.0705 -0.0353,-0.10584 -0.0353,-0.10583 -0.0705,-0.0706 -0.0706,-0.0353 -0.0706,-0.0706 -0.10583,-0.0353 h -0.10578 -0.59962 l -0.0352,1e-5 h -0.0353 l -0.0353,-0.0353 h -0.0353 v -0.0353 l -0.0353,-0.0353 v -0.0353 l 5e-5,-0.0353 3e-5,-2.11666 -2e-5,-0.0706 0.0353,-0.0705 0.0353,-0.10583 0.0353,-0.0706 0.0706,-0.0353 0.0705,-0.0705 0.0706,-0.0353 0.0705,-0.0353 1.76381,-0.31749 1.48117,2e-5 1.7637,0.31749 0.0705,0.0353 0.0706,0.0353 0.0706,0.0705 0.0706,0.0353 0.0353,0.0706 0.0353,0.10583 0.0353,0.0705 -1.2e-4,0.0706 -6e-5,2.11656 7e-5,0.0353 v 0.0353 l -0.0353,0.0353 -0.0353,0.0353 -0.0353,0.0353 h -0.0353 l -0.0705,-1e-5 h -0.59967 -0.0705 l -0.10584,0.0353 -0.0705,0.0706 -0.10583,0.0353 -0.0353,0.0705 -0.0706,0.10583 v 0.10583 l -0.0353,0.0705 v 0.42334 l 0.0353,0.0705 v 0.10583 l 0.0706,0.10584 0.0353,0.0705 0.10583,0.0353 0.0705,0.0706 0.10584,0.0353 0.0706,5e-5 h 1.79918 l 0.10573,-5e-5 0.10584,-0.0353 0.0705,-0.0706 0.0706,-0.0353 0.0705,-0.0705 0.0706,-0.10584 v -0.10583 l 0.0353,-0.0705 2e-5,-0.35277 3e-5,-0.14111 0.0705,-0.14111 0.10584,-0.10584 0.10583,-0.0706 0.14111,-0.0353 h 0.17639 l 0.14111,0.0706 0.10585,0.0706 1.02298,1.05834 0.0352,0.0353 h 0.0353 l 0.0706,0.0353 0.0353,0.0353 h 0.0353 l 0.0706,0.0353 h 0.0353 l 0.0352,-1e-5 h 0.59957 0.0705 l 0.0353,-0.0353 h 0.0353 l 0.0353,-0.0353 0.0353,-0.0353 0.0353,-0.0705 v -0.0353 l 0.0355,-0.0352 1e-5,-0.5997 -0.0355,-0.0706 v -0.0353 -0.0353 l -0.0353,-0.0706 v -0.0353 l -0.0353,-0.0353 -0.0353,-0.0353 -0.0352,-0.0353 -1.02302,-1.05832 -0.10586,-0.10584 -0.0353,-0.14111 v -0.14111 l 0.0353,-0.14111 0.0706,-0.14111 0.10583,-0.10583 0.14111,-0.0353 0.14109,-0.0353 h 0.31743 l 0.10579,10e-6 0.10583,-0.0353 0.0706,-0.0353 0.0705,-0.0706 0.0706,-0.0706 0.0353,-0.10584 0.0353,-0.0705 0.0353,-0.10583 v -1.79915 l -0.0353,-0.10582 -0.0353,-0.10584 -0.0353,-0.0706 -0.0706,-0.0706 -0.0705,-0.0706 -0.0706,-0.0353 -0.10583,-0.0353 -0.10579,1e-5 h -0.38796 l -0.1058,-1e-5 -0.0706,0.0353 -0.10583,0.0353 -0.0706,0.0706 -0.0705,0.0706 -0.0353,0.0706 -0.0353,0.10584 4e-5,0.10582 9e-5,0.59971 7e-5,0.0353 -0.0353,0.0353 v 0.0353 l -0.0353,0.0353 -0.0353,0.0353 h -0.0353 -0.0353 l -0.0352,-1e-5 -2.0813,1e-5 h -0.0705 -0.10583 l -0.0706,-0.0353 -0.0706,-0.0706 -0.0705,-0.0706 -0.0353,-0.0353 -0.0353,-0.10583 -0.0353,-0.0705 -0.31741,-1.76387 2e-4,-1.48161 0.31741,-1.72861 0.0353,-0.10583 0.0353,-0.0705 0.0353,-0.0706 0.0705,-0.0705 0.0706,-0.0353 0.0706,-0.0353 0.10583,-0.0353 h 0.0705 l 2.0813,-1e-5 0.0352,-10e-6 h 0.0353 l 0.0353,0.0353 0.0353,0.0353 0.0353,0.0353 v 0.0353 l 0.0353,0.0353 -6e-5,0.0353 -10e-5,0.59971 -4e-5,0.10583 0.0353,0.0706 0.0353,0.10583 0.0705,0.0706 0.0706,0.0706 0.10583,0.0353 0.0706,0.0353 0.1058,-1e-5 h 0.38796 l 0.10579,1e-5 0.10583,-0.0353 0.0706,-0.0353 0.0705,-0.0706 0.0706,-0.0706 0.0353,-0.10583 0.0353,-0.0706 0.0354,-0.1058 v -1.79917 l -0.0354,-0.10584 -0.0353,-0.10584 -0.0353,-0.0706 -0.0706,-0.0705 -0.0705,-0.0706 -0.0706,-0.0353 -0.10583,-0.0353 -0.10579,1e-5 -0.31743,1e-5 -0.14109,-0.0353 -0.14111,-0.0706 -0.10583,-0.10584 -0.0706,-0.10583 -0.0353,-0.14111 v -0.14111 l 0.0353,-0.14111 0.10586,-0.14111 1.02302,-1.02305 0.0352,-0.0353 0.0353,-0.0353 0.0353,-0.0353 v -0.0705 l 0.0353,-0.0353 v -0.0353 -0.0706 l 0.0354,-0.0353 -1e-5,-0.59971 -0.0354,-0.0706 v -0.0353 l -0.0353,-0.0353 -0.0353,-0.0353 -0.0353,-0.0353 -0.0353,-0.0353 h -0.0353 l -0.0705,1e-5 h -0.59957 -0.0352 -0.0353 -0.0706 l -0.0353,0.0353 h -0.0353 l -0.0706,0.0353 -0.0353,0.0353 -0.0352,0.0353 -1.02297,1.02305 -0.10586,0.10583 -0.14111,0.0353 h -0.17639 l -0.14111,-0.0353 -0.10583,-0.0705 -0.10584,-0.10583 -0.0705,-0.14111 -2e-5,-0.14112 -2.6e-4,-0.3175 -0.0355,-0.10583 v -0.10584 l -0.0706,-0.0705 -0.0705,-0.0706 -0.0706,-0.0705 -0.0705,-0.0353 -0.10584,-0.0353 h -0.10536 -1.79941 z"
       style="opacity:1;vector-effect:none;fill:none;fill-opacity:1;stroke:#0000ff;stroke-width:0.35277775;stroke-linecap:butt;stroke-linejoin:miter;stroke-miterlimit:4;stroke-dasharray:none;stroke-dashoffset:0;stroke-opacity:1;marker:none"
       inkscape:connector-curvature="0"
       sodipodi:nodetypes="cccccccccccccccccccccccccccccccccccccccccccccccccccccccccccccccccccccccccccccccccccccccccccccccccccccccccccccccccccccccccccccccccccccccccccccccccccccccccccccccccccccccccccccccccccccccccccccccccccccccccccccccccccccccccccccccccccccccccccccccccccccccccccccccccccccccccccccccccccccccccccccccccccccccccccccccccccccccccccccccccccccccccccccccccccccccccccccccccccccccccccccccccccccccccccccccccccccccccccccccccccccccccccccccccccccccccccccccccccccccccccccccccccccccccccccccccccccccccccccccccccccccccccccccccccccccccccccccccccccccccccccccccccccccccccccccccccc" />
  </g>
  <g
     id="g1892"
     inkscape:groupmode="layer"
     inkscape:label="Layer 2"
     style="display:inline">
    <circle
       style="opacity:1;vector-effect:none;fill:none;fill-opacity:1;stroke:#ff0000;stroke-width:0.35277775;stroke-linecap:butt;stroke-linejoin:miter;stroke-miterlimit:4;stroke-dasharray:none;stroke-dashoffset:0;stroke-opacity:1;marker:none"
       id="path1898"
       cx="132.23135"
       cy="45.536751"
       r="1.5" />
    <circle
       r="1.5"
       cy="45.536751"
       cx="37.925621"
       id="circle1901"
       style="opacity:1;vector-effect:none;fill:none;fill-opacity:1;stroke:#ff0000;stroke-width:0.35277775;stroke-linecap:butt;stroke-linejoin:miter;stroke-miterlimit:4;stroke-dasharray:none;stroke-dashoffset:0;stroke-opacity:1;marker:none" />
    <circle
       r="1.5"
       cy="168.03677"
       cx="132.23135"
       id="circle1903"
       style="opacity:1;vector-effect:none;fill:none;fill-opacity:1;stroke:#ff0000;stroke-width:0.35277775;stroke-linecap:butt;stroke-linejoin:miter;stroke-miterlimit:4;stroke-dasharray:none;stroke-dashoffset:0;stroke-opacity:1;marker:none" />
    <circle
       style="opacity:1;vector-effect:none;fill:none;fill-opacity:1;stroke:#ff0000;stroke-width:0.35277775;stroke-linecap:butt;stroke-linejoin:miter;stroke-miterlimit:4;stroke-dasharray:none;stroke-dashoffset:0;stroke-opacity:1;marker:none"
       id="circle1905"
       cx="37.925621"
       cy="168.03677"
       r="1.5" />
  </g>
  <g
     inkscape:groupmode="layer"
     id="layer2"
     inkscape:label="faceplate guide"
     style="display:none">
    <path
       style="opacity:1;vector-effect:none;fill:#f57d11;fill-opacity:1;stroke:none;stroke-width:1.33333325;stroke-linecap:butt;stroke-linejoin:miter;stroke-miterlimit:4;stroke-dasharray:none;stroke-dashoffset:0;stroke-opacity:1;marker:none"
       d="M 53.894531 160.76953 L 53.894531 646.43945 L 85.488281 646.43945 L 85.488281 160.76953 L 53.894531 160.76953 z M 65.234375 166.43945 A 5.6692913 5.6692913 0 0 1 70.902344 172.10742 A 5.6692913 5.6692913 0 0 1 65.234375 177.77734 A 5.6692913 5.6692913 0 0 1 59.564453 172.10742 A 5.6692913 5.6692913 0 0 1 65.234375 166.43945 z M 65.234375 629.43164 A 5.6692912 5.6692912 0 0 1 70.902344 635.09961 A 5.6692912 5.6692912 0 0 1 65.234375 640.76953 A 5.6692912 5.6692912 0 0 1 59.564453 635.09961 A 5.6692912 5.6692912 0 0 1 65.234375 629.43164 z "
       id="rect2183"
       transform="scale(0.26458333)" />
  </g>
</svg>
