<?xml version="1.0" encoding="UTF-8" standalone="no"?>
<!-- Created with Inkscape (http://www.inkscape.org/) -->

<svg
   xmlns:dc="http://purl.org/dc/elements/1.1/"
   xmlns:cc="http://creativecommons.org/ns#"
   xmlns:rdf="http://www.w3.org/1999/02/22-rdf-syntax-ns#"
   xmlns:svg="http://www.w3.org/2000/svg"
   xmlns="http://www.w3.org/2000/svg"
   xmlns:sodipodi="http://sodipodi.sourceforge.net/DTD/sodipodi-0.dtd"
   xmlns:inkscape="http://www.inkscape.org/namespaces/inkscape"
   width="210mm"
   height="297mm"
   viewBox="0 0 210 297"
   version="1.1"
   id="svg1652"
   inkscape:version="0.92.5 (2060ec1f9f, 2020-04-08)"
   sodipodi:docname="sierpinski_triangle.svg">
  <defs
     id="defs1646" />
  <sodipodi:namedview
     id="base"
     pagecolor="#ffffff"
     bordercolor="#666666"
     borderopacity="1.0"
     inkscape:pageopacity="0.0"
     inkscape:pageshadow="2"
     inkscape:zoom="0.35"
     inkscape:cx="-268.57143"
     inkscape:cy="560"
     inkscape:document-units="mm"
     inkscape:current-layer="layer1"
     showgrid="false"
     showguides="false"
     inkscape:window-width="2560"
     inkscape:window-height="1312"
     inkscape:window-x="0"
     inkscape:window-y="54"
     inkscape:window-maximized="1" />
  <metadata
     id="metadata1649">
    <rdf:RDF>
      <cc:Work
         rdf:about="">
        <dc:format>image/svg+xml</dc:format>
        <dc:type
           rdf:resource="http://purl.org/dc/dcmitype/StillImage" />
        <dc:title></dc:title>
      </cc:Work>
    </rdf:RDF>
  </metadata>
  <g
     inkscape:label="Layer 1"
     inkscape:groupmode="layer"
     id="layer1">
    <path
       inkscape:connector-curvature="0"
       d="M 20.84877,289.77778 25.01853,297 H 16.67902 Z M 29.18828,289.77778 33.35804,297 H 25.01853 Z M 25.01853,282.55554 29.18828,289.77778 H 20.84877 Z M 10.42439,278.94443 12.50927,282.55554 H 8.33951 Z M 14.59415,278.94443 16.67902,282.55554 H 12.50927 Z M 12.50927,275.33332 14.59414,278.94443 H 10.42439 Z M 18.7639,278.94443 20.84877,282.55554 H 16.67902 Z M 22.93365,278.94443 25.01853,282.55554 H 20.84877 Z M 20.84877,275.33332 22.93365,278.94443 H 18.7639 Z M 14.59415,271.72222 16.67902,275.33332 H 12.50927 Z M 18.7639,271.72222 20.84877,275.33332 H 16.67902 Z M 16.67902,268.11109 18.7639,271.72222 H 14.59415 Z M 8.33951,282.55554 16.67902,297 H 0 Z"
       style="opacity:1;vector-effect:none;fill:#000000;fill-opacity:1;stroke:none;stroke-width:0.19206005;stroke-linecap:butt;stroke-linejoin:miter;stroke-miterlimit:4;stroke-dasharray:none;stroke-dashoffset:0;stroke-opacity:1;marker:none;paint-order:normal"
       id="path5604" />
  </g>
</svg>
