  0
SECTION
  2
HEADER
  9
$ACADVER
  1
AC1014
  9
$HANDSEED
  5
FFFF
  9
$MEASUREMENT
 70
     1
  0
ENDSEC
  0
SECTION
  2
TABLES
  0
TABLE
  2
VPORT
  5
8
330
0
100
AcDbSymbolTable
 70
     4
  0
VPORT
  5
2E
330
8
100
AcDbSymbolTableRecord
100
AcDbViewportTableRecord
  2
*ACTIVE
 70
     0
 10
0.0
 20
0.0
 11
1.0
 21
1.0
 12
210.0
 22
148.5
 13
0.0
 23
0.0
 14
10.0
 24
10.0
 15
10.0
 25
10.0
 16
0.0
 26
0.0
 36
1.0
 17
0.0
 27
0.0
 37
0.0
 40
341.0
 41
1.24
 42
50.0
 43
0.0
 44
0.0
 50
0.0
 51
0.0
 71
     0
 72
   100
 73
     1
 74
     3
 75
     0
 76
     0
 77
     0
 78
     0
  0
ENDTAB
  0
TABLE
  2
LTYPE
  5
5
330
0
100
AcDbSymbolTable
 70
     1
  0
LTYPE
  5
14
330
5
100
AcDbSymbolTableRecord
100
AcDbLinetypeTableRecord
  2
BYBLOCK
 70
     0
  3

 72
    65
 73
     0
 40
0.0
  0
LTYPE
  5
15
330
5
100
AcDbSymbolTableRecord
100
AcDbLinetypeTableRecord
  2
BYLAYER
 70
     0
  3

 72
    65
 73
     0
 40
0.0
  0
LTYPE
  5
16
330
5
100
AcDbSymbolTableRecord
100
AcDbLinetypeTableRecord
  2
CONTINUOUS
 70
     0
  3
Solid line
 72
    65
 73
     0
 40
0.0
  0
ENDTAB
  0
TABLE
  2
LAYER
  5
2
100
AcDbSymbolTable
 70
2
  0
LAYER
  5
50
100
AcDbSymbolTableRecord
100
AcDbLayerTableRecord
  2
0
 70
0
  6
CONTINUOUS
  0
LAYER
  5
51
100
AcDbSymbolTableRecord
100
AcDbLayerTableRecord
  2
Layer_1
 70
0
  6
CONTINUOUS
  0
ENDTAB
  0
TABLE
  2
STYLE
  5
3
330
0
100
AcDbSymbolTable
 70
     1
  0
STYLE
  5
11
330
3
100
AcDbSymbolTableRecord
100
AcDbTextStyleTableRecord
  2
STANDARD
 70
     0
 40
0.0
 41
1.0
 50
0.0
 71
     0
 42
2.5
  3
txt
  4

  0
ENDTAB
  0
TABLE
  2
VIEW
  5
6
330
0
100
AcDbSymbolTable
 70
     0
  0
ENDTAB
  0
TABLE
  2
UCS
  5
7
330
0
100
AcDbSymbolTable
 70
     0
  0
ENDTAB
  0
TABLE
  2
APPID
  5
9
330
0
100
AcDbSymbolTable
 70
     2
  0
APPID
  5
12
330
9
100
AcDbSymbolTableRecord
100
AcDbRegAppTableRecord
  2
ACAD
 70
     0
  0
ENDTAB
  0
TABLE
  2
DIMSTYLE
  5
A
330
0
100
AcDbSymbolTable
 70
     1
  0
DIMSTYLE
105
27
330
A
100
AcDbSymbolTableRecord
100
AcDbDimStyleTableRecord
  2
ISO-25
 70
     0
  3

  4

  5

  6

  7

 40
1.0
 41
2.5
 42
0.625
 43
3.75
 44
1.25
 45
0.0
 46
0.0
 47
0.0
 48
0.0
140
2.5
141
2.5
142
0.0
143
0.03937007874016
144
1.0
145
0.0
146
1.0
147
0.625
 71
     0
 72
     0
 73
     0
 74
     0
 75
     0
 76
     0
 77
     1
 78
     8
170
     0
171
     3
172
     1
173
     0
174
     0
175
     0
176
     0
177
     0
178
     0
270
     2
271
     2
272
     2
273
     2
274
     3
340
11
275
     0
280
     0
281
     0
282
     0
283
     0
284
     8
285
     0
286
     0
287
     3
288
     0
  0
ENDTAB
  0
TABLE
  2
BLOCK_RECORD
  5
1
330
0
100
AcDbSymbolTable
 70
     1
  0
BLOCK_RECORD
  5
1F
330
1
100
AcDbSymbolTableRecord
100
AcDbBlockTableRecord
  2
*MODEL_SPACE
  0
BLOCK_RECORD
  5
1B
330
1
100
AcDbSymbolTableRecord
100
AcDbBlockTableRecord
  2
*PAPER_SPACE
  0
ENDTAB
  0
ENDSEC
  0
SECTION
  2
BLOCKS
  0
BLOCK
  5
20
330
1F
100
AcDbEntity
  8
0
100
AcDbBlockBegin
  2
*MODEL_SPACE
 70
     0
 10
0.0
 20
0.0
 30
0.0
  3
*MODEL_SPACE
  1

  0
ENDBLK
  5
21
330
1F
100
AcDbEntity
  8
0
100
AcDbBlockEnd
  0
BLOCK
  5
1C
330
1B
100
AcDbEntity
 67
     1
  8
0
100
AcDbBlockBegin
  2
*PAPER_SPACE
  1

  0
ENDBLK
  5
1D
330
1B
100
AcDbEntity
 67
     1
  8
0
100
AcDbBlockEnd
  0
ENDSEC
  0
SECTION
  2
ENTITIES
  0
LWPOLYLINE
  5
100
100
AcDbEntity
  8
Layer_1
 62
3
100
AcDbPolyline
 90
191
 70
1
 10
15.488665
 20
3.951460
 30
0.0
 10
15.306537
 20
3.783187
 30
0.0
 10
15.110167
 20
3.642934
 30
0.0
 10
14.885854
 20
3.530932
 30
0.0
 10
14.647532
 20
3.460806
 30
0.0
 10
14.409210
 20
3.418699
 30
0.0
 10
14.170887
 20
3.418699
 30
0.0
 10
13.932643
 20
3.460806
 30
0.0
 10
13.694398
 20
3.530932
 30
0.0
 10
13.469930
 20
3.629079
 30
0.0
 10
13.273793
 20
3.769100
 30
0.0
 10
13.091587
 20
3.937373
 30
0.0
 10
12.937401
 20
4.119578
 30
0.0
 10
12.825168
 20
4.343891
 30
0.0
 10
12.727099
 20
4.568203
 30
0.0
 10
12.670904
 20
4.806603
 30
0.0
 10
12.656972
 20
5.044848
 30
0.0
 10
12.670904
 20
5.283248
 30
0.0
 10
12.727099
 20
5.521493
 30
0.0
 10
12.825168
 20
5.745728
 30
0.0
 10
12.937401
 20
5.970040
 30
0.0
 10
13.091587
 20
6.152323
 30
0.0
 10
13.273793
 20
6.320519
 30
0.0
 10
13.469930
 20
6.460695
 30
0.0
 10
13.694398
 20
6.558918
 30
0.0
 10
13.932643
 20
6.628968
 30
0.0
 10
14.170887
 20
6.670997
 30
0.0
 10
14.409210
 20
6.670997
 30
0.0
 10
14.647532
 20
6.628968
 30
0.0
 10
14.885854
 20
6.558918
 30
0.0
 10
15.110167
 20
6.446685
 30
0.0
 10
15.306537
 20
6.306586
 30
0.0
 10
15.488665
 20
6.138313
 30
0.0
 10
15.642940
 20
5.956108
 30
0.0
 10
15.727011
 20
5.885981
 30
0.0
 10
15.811070
 20
5.843874
 30
0.0
 10
15.923226
 20
5.829942
 30
0.0
 10
16.021450
 20
5.857977
 30
0.0
 10
17.591490
 20
6.586892
 30
0.0
 10
17.675557
 20
6.657018
 30
0.0
 10
17.745761
 20
6.741155
 30
0.0
 10
17.759764
 20
6.853249
 30
0.0
 10
17.759757
 20
7.133620
 30
0.0
 10
17.731737
 20
7.245781
 30
0.0
 10
17.675543
 20
7.343927
 30
0.0
 10
17.577474
 20
7.399966
 30
0.0
 10
17.465329
 20
7.428052
 30
0.0
 10
16.077537
 20
7.435061
 30
0.0
 10
15.965403
 20
7.470101
 30
0.0
 10
15.867257
 20
7.526140
 30
0.0
 10
15.811063
 20
7.624286
 30
0.0
 10
15.783198
 20
7.736443
 30
0.0
 10
15.783186
 20
8.521451
 30
0.0
 10
15.811118
 20
8.633599
 30
0.0
 10
15.867234
 20
8.731823
 30
0.0
 10
15.965381
 20
8.787863
 30
0.0
 10
16.077537
 20
8.822891
 30
0.0
 10
17.465352
 20
8.829899
 30
0.0
 10
17.577419
 20
8.857919
 30
0.0
 10
17.675566
 20
8.914036
 30
0.0
 10
17.731683
 20
9.012105
 30
0.0
 10
17.759768
 20
9.124273
 30
0.0
 10
17.759757
 20
9.713082
 30
0.0
 10
17.731737
 20
9.825234
 30
0.0
 10
17.675543
 20
9.923303
 30
0.0
 10
17.577474
 20
9.979420
 30
0.0
 10
17.465329
 20
10.014479
 30
0.0
 10
0.376656
 20
10.014487
 30
0.0
 10
0.264508
 20
9.979435
 30
0.0
 10
0.166439
 20
9.923319
 30
0.0
 10
0.110322
 20
9.825250
 30
0.0
 10
0.082291
 20
9.713085
 30
0.0
 10
0.082279
 20
9.124281
 30
0.0
 10
0.110299
 20
9.012129
 30
0.0
 10
0.166415
 20
8.914060
 30
0.0
 10
0.264484
 20
8.857943
 30
0.0
 10
0.376652
 20
8.829911
 30
0.0
 10
2.563598
 20
8.822903
 30
0.0
 10
2.675758
 20
8.787808
 30
0.0
 10
2.773827
 20
8.731769
 30
0.0
 10
2.829943
 20
8.633623
 30
0.0
 10
2.864957
 20
8.521466
 30
0.0
 10
2.871950
 20
7.329928
 30
0.0
 10
2.899970
 20
7.217768
 30
0.0
 10
2.956087
 20
7.119622
 30
0.0
 10
3.054156
 20
7.063582
 30
0.0
 10
3.166378
 20
7.035497
 30
0.0
 10
4.750478
 20
7.035509
 30
0.0
 10
4.862627
 20
7.063528
 30
0.0
 10
4.960773
 20
7.119568
 30
0.0
 10
5.016812
 20
7.217791
 30
0.0
 10
5.044898
 20
7.329936
 30
0.0
 10
5.051868
 20
7.974757
 30
0.0
 10
5.086947
 20
8.086905
 30
0.0
 10
5.142986
 20
8.185052
 30
0.0
 10
5.241133
 20
8.241091
 30
0.0
 10
5.353289
 20
8.276162
 30
0.0
 10
7.133612
 20
8.276174
 30
0.0
 10
7.245834
 20
8.241114
 30
0.0
 10
7.343903
 20
8.184997
 30
0.0
 10
7.400020
 20
8.086928
 30
0.0
 10
7.428039
 20
7.974772
 30
0.0
 10
7.435029
 20
7.329928
 30
0.0
 10
7.470115
 20
7.217768
 30
0.0
 10
7.526154
 20
7.119622
 30
0.0
 10
7.624223
 20
7.063582
 30
0.0
 10
7.736445
 20
7.035497
 30
0.0
 10
10.119571
 20
7.035501
 30
0.0
 10
10.231797
 20
7.007473
 30
0.0
 10
10.329866
 20
6.951357
 30
0.0
 10
10.385983
 20
6.853288
 30
0.0
 10
10.414003
 20
6.741131
 30
0.0
 10
10.414014
 20
3.362683
 30
0.0
 10
10.385929
 20
3.250465
 30
0.0
 10
10.329890
 20
3.152396
 30
0.0
 10
10.231743
 20
3.096279
 30
0.0
 10
10.119587
 20
3.068182
 30
0.0
 10
7.736437
 20
3.061227
 30
0.0
 10
7.624277
 20
3.026253
 30
0.0
 10
7.526131
 20
2.970059
 30
0.0
 10
7.470169
 20
2.871990
 30
0.0
 10
7.435017
 20
2.759845
 30
0.0
 10
7.428047
 20
2.114946
 30
0.0
 10
7.399957
 20
2.002875
 30
0.0
 10
7.343917
 20
1.904806
 30
0.0
 10
7.245771
 20
1.848612
 30
0.0
 10
7.133615
 20
1.820592
 30
0.0
 10
5.353295
 20
1.820581
 30
0.0
 10
5.241077
 20
1.848666
 30
0.0
 10
5.143008
 20
1.904783
 30
0.0
 10
5.086891
 20
2.002929
 30
0.0
 10
5.051879
 20
2.114931
 30
0.0
 10
5.044886
 20
2.759853
 30
0.0
 10
5.016866
 20
2.871935
 30
0.0
 10
4.960750
 20
2.970082
 30
0.0
 10
4.862681
 20
3.026199
 30
0.0
 10
4.750459
 20
3.061239
 30
0.0
 10
3.166358
 20
3.061227
 30
0.0
 10
3.054210
 20
3.026253
 30
0.0
 10
2.956063
 20
2.970059
 30
0.0
 10
2.900024
 20
2.871990
 30
0.0
 10
2.871939
 20
2.759845
 30
0.0
 10
2.871950
 20
0.376707
 30
0.0
 10
2.899970
 20
0.264469
 30
0.0
 10
2.956087
 20
0.166323
 30
0.0
 10
3.054156
 20
0.110283
 30
0.0
 10
3.166378
 20
0.082275
 30
0.0
 10
9.026122
 20
0.082287
 30
0.0
 10
9.138278
 20
0.110229
 30
0.0
 10
9.236425
 20
0.166346
 30
0.0
 10
9.292464
 20
0.264492
 30
0.0
 10
9.320554
 20
0.376714
 30
0.0
 10
9.320535
 20
1.021535
 30
0.0
 10
9.348620
 20
1.133684
 30
0.0
 10
9.404582
 20
1.231830
 30
0.0
 10
9.502806
 20
1.287869
 30
0.0
 10
9.614962
 20
1.322883
 30
0.0
 10
13.988726
 20
1.322894
 30
0.0
 10
14.100863
 20
1.287816
 30
0.0
 10
14.199009
 20
1.231854
 30
0.0
 10
14.255126
 20
1.133630
 30
0.0
 10
14.283068
 20
1.021551
 30
0.0
 10
14.290100
 20
0.376707
 30
0.0
 10
14.325152
 20
0.264469
 30
0.0
 10
14.381346
 20
0.166323
 30
0.0
 10
14.479415
 20
0.110283
 30
0.0
 10
14.591560
 20
0.082275
 30
0.0
 10
23.423234
 20
0.082287
 30
0.0
 10
23.535375
 20
0.110229
 30
0.0
 10
23.633521
 20
0.166346
 30
0.0
 10
23.689561
 20
0.264492
 30
0.0
 10
23.717723
 20
0.376714
 30
0.0
 10
23.717711
 20
0.979440
 30
0.0
 10
23.689614
 20
1.091600
 30
0.0
 10
23.633497
 20
1.189746
 30
0.0
 10
23.535428
 20
1.245786
 30
0.0
 10
23.423207
 20
1.273871
 30
0.0
 10
18.068153
 20
1.273852
 30
0.0
 10
17.956024
 20
1.302019
 30
0.0
 10
17.857877
 20
1.357981
 30
0.0
 10
17.801761
 20
1.456127
 30
0.0
 10
17.766788
 20
1.568206
 30
0.0
 10
17.759757
 20
3.236451
 30
0.0
 10
17.745747
 20
3.348595
 30
0.0
 10
17.675543
 20
3.432654
 30
0.0
 10
17.591490
 20
3.502874
 30
0.0
 10
16.021457
 20
4.238828
 30
0.0
 10
15.923226
 20
4.259800
 30
0.0
 10
15.811070
 20
4.245791
 30
0.0
 10
15.727011
 20
4.203838
 30
0.0
 10
15.642940
 20
4.133573
 30
0.0
  0
LWPOLYLINE
  5
101
100
AcDbEntity
  8
Layer_1
 62
3
100
AcDbPolyline
 90
2
 70
1
 10
13.301828
 20
6.362626
 30
0.0
 10
13.224736
 20
6.278489
 30
0.0
  0
LWPOLYLINE
  5
102
100
AcDbEntity
  8
Layer_1
 62
3
100
AcDbPolyline
 90
1
 70
1
 10
15.138255
 20
6.439726
 30
0.0
  0
ENDSEC
  0
SECTION
  2
OBJECTS
  0
DICTIONARY
  5
C
330
0
100
AcDbDictionary
  3
ACAD_GROUP
350
D
  3
ACAD_MLINESTYLE
350
17
  0
DICTIONARY
  5
D
330
C
100
AcDbDictionary
  0
DICTIONARY
  5
1A
330
C
100
AcDbDictionary
  0
DICTIONARY
  5
17
330
C
100
AcDbDictionary
  3
STANDARD
350
18
  0
DICTIONARY
  5
19
330
C
100
AcDbDictionary
  0
ENDSEC
  0
EOF
