<?xml version="1.0" encoding="UTF-8" standalone="no"?>
<!-- Created with Inkscape (http://www.inkscape.org/) -->

<svg
   xmlns:dc="http://purl.org/dc/elements/1.1/"
   xmlns:cc="http://creativecommons.org/ns#"
   xmlns:rdf="http://www.w3.org/1999/02/22-rdf-syntax-ns#"
   xmlns:svg="http://www.w3.org/2000/svg"
   xmlns="http://www.w3.org/2000/svg"
   xmlns:sodipodi="http://sodipodi.sourceforge.net/DTD/sodipodi-0.dtd"
   xmlns:inkscape="http://www.inkscape.org/namespaces/inkscape"
   width="210mm"
   height="297mm"
   viewBox="0 0 210 297"
   version="1.1"
   id="svg4815"
   inkscape:version="0.92.4 (5da689c313, 2019-01-14)"
   sodipodi:docname="z-rails.svg">
  <defs
     id="defs4809" />
  <sodipodi:namedview
     id="base"
     pagecolor="#ffffff"
     bordercolor="#666666"
     borderopacity="1.0"
     inkscape:pageopacity="0.0"
     inkscape:pageshadow="2"
     inkscape:zoom="0.35"
     inkscape:cx="-207.14286"
     inkscape:cy="560"
     inkscape:document-units="mm"
     inkscape:current-layer="layer1"
     showgrid="false"
     inkscape:window-width="2560"
     inkscape:window-height="1311"
     inkscape:window-x="0"
     inkscape:window-y="55"
     inkscape:window-maximized="1" />
  <metadata
     id="metadata4812">
    <rdf:RDF>
      <cc:Work
         rdf:about="">
        <dc:format>image/svg+xml</dc:format>
        <dc:type
           rdf:resource="http://purl.org/dc/dcmitype/StillImage" />
        <dc:title></dc:title>
      </cc:Work>
    </rdf:RDF>
  </metadata>
  <g
     inkscape:label="Layer 1"
     inkscape:groupmode="layer"
     id="layer1">
    <g
       id="g2618"
       transform="matrix(0.0774025,0,0,-0.0774025,36.606801,104.07401)">
      <path
         style="fill:none;stroke:#3a642d;stroke-width:2.12599993;stroke-linecap:round;stroke-linejoin:round;stroke-miterlimit:10;stroke-dasharray:none;stroke-opacity:1"
         d="M 149.64703,13.084852 147.29403,10.910852 144.75703,9.0988521 141.85903,7.6518522 138.78003,6.7458522 135.70103,6.2018522 H 132.62203 L 129.54403,6.7458522 126.46603,7.6518522 123.56603,8.9198521 121.03203,10.728852 118.67803,12.902852 116.68603,15.256852 115.23603,18.154852 113.96903,21.052852 113.24303,24.132852 113.06303,27.210852 113.24303,30.290852 113.96903,33.368852 115.23603,36.265852 116.68603,39.163852 118.67803,41.518852 121.03203,43.691852 123.56603,45.502852 126.46603,46.771852 129.54403,47.676852 132.62203,48.219852 H 135.70103 L 138.78003,47.676852 141.85903,46.771852 144.75703,45.321852 147.29403,43.511852 149.64703,41.337852 151.64018,38.983852 152.72633,38.077852 153.81233,37.533852 155.26133,37.353852 156.53033,37.716054 176.81443,47.133255 177.90054,48.039255 178.80754,49.126255 178.98845,50.574454 178.98835,54.196704 178.62635,55.645755 177.90035,56.913755 176.63335,57.637755 175.1845,58.000605 157.25495,58.091155 155.80624,58.543854 154.53824,59.267854 153.81224,60.535854 153.45224,61.984854 153.45209,72.126753 153.81295,73.575653 154.53795,74.844653 155.80595,75.568653 157.25495,76.0212 175.1848,76.111747 176.63265,76.473747 177.90065,77.198747 178.62565,78.465747 178.9885,79.914899 178.98835,87.521999 178.62635,88.970947 177.90035,90.237947 176.63335,90.962947 175.1845,91.415897 -45.592253,91.415999 -47.041157,90.963152 -48.308157,90.238152 -49.033157,88.971152 -49.395307,87.522049 -49.395458,79.914999 -49.033458,78.466051 -48.308458,77.199051 -47.041458,76.474051 -45.592308,76.111899 -17.33811,76.02135 -15.889063,75.567952 -14.622063,74.843952 -13.897063,73.575952 -13.444708,72.126952 -13.354354,56.732901 -12.992354,55.28385 -12.267354,54.01585 -11.000354,53.29185 -9.5505062,52.929 10.915244,52.92915 12.364145,53.29115 13.632145,54.01515 14.356145,55.28415 14.718994,56.733 14.809046,65.063749 15.262249,66.512648 15.986249,67.780648 17.254249,68.504648 18.703249,68.957749 41.704096,68.957899 43.153943,68.504948 44.420943,67.779948 45.145943,66.512948 45.507943,65.063948 45.59824,56.732899 46.051538,55.28385 46.775538,54.01585 48.042538,53.29185 49.492387,52.929 80.281135,52.929051 81.731034,52.566951 82.998034,51.841951 83.723034,50.574951 84.085034,49.125951 84.085185,5.4781516 83.722336,4.0283522 82.998336,2.7613522 81.730336,2.0363522 80.281336,1.6733522 49.492286,1.5835024 48.043236,1.1316527 46.775236,0.40565274 46.052236,-0.86134726 45.598089,-2.3101976 45.508037,-10.641952 45.145132,-12.089855 44.421132,-13.356855 43.153132,-14.082855 41.704132,-14.444855 18.703327,-14.445004 17.253523,-14.082152 15.986523,-13.357152 15.261523,-12.089152 14.809183,-10.642152 14.718843,-2.3100998 14.356843,-0.86204786 13.631843,0.40595214 12.364843,1.1309521 10.914994,1.5836521 -9.5507562,1.5835024 -10.999657,1.1316527 -12.267657,0.40565274 -12.991657,-0.86134726 -13.354506,-2.3101976 -13.354354,-33.099101 -12.992354,-34.549154 -12.267354,-35.817154 -11.000354,-36.541154 -9.5505062,-36.903004 66.154341,-36.902855 67.60334,-36.541855 68.87134,-35.816855 69.59534,-34.548855 69.958245,-33.099004 69.958,-24.768254 70.320849,-23.319354 71.043849,-22.051354 72.312849,-21.327354 73.761849,-20.875002 130.2686,-20.874851 131.71735,-21.328051 132.98535,-22.051051 133.71035,-23.320051 134.07135,-24.768051 134.1622,-33.099103 134.61505,-34.549154 135.34105,-35.817154 136.60805,-36.541154 138.0569,-36.903004 252.15753,-36.902855 253.60633,-36.541855 254.87433,-35.816855 255.59833,-34.548855 255.96217,-33.099004 255.96202,-25.312106 255.59902,-23.863057 254.87402,-22.595057 253.60702,-21.871057 252.15718,-21.508206 182.97267,-21.508455 181.52402,-21.144554 180.25602,-20.421554 179.53102,-19.153554 179.07919,-17.705554 178.98835,3.8472986 178.80735,5.2961513 177.90035,6.3821513 176.81444,7.2893482 156.53043,16.797496 155.26133,17.068446 153.81233,16.887446 152.72633,16.345446 151.64018,15.437649 Z"
         id="path4783"
         inkscape:connector-curvature="0" />
      <path
         style="fill:none;stroke:#3a642d;stroke-width:2.12599993;stroke-linecap:round;stroke-linejoin:round;stroke-miterlimit:10;stroke-dasharray:none;stroke-opacity:1"
         d="M 121.39424,44.235855 120.39824,43.148855 Z"
         id="path4781"
         inkscape:connector-curvature="0" />
      <path
         style="fill:none;stroke:#3a642d;stroke-width:2.12599993;stroke-linecap:round;stroke-linejoin:round;stroke-miterlimit:10;stroke-dasharray:none;stroke-opacity:1"
         d="M 145.11992,45.23195 Z"
         id="path2620"
         inkscape:connector-curvature="0" />
    </g>
  </g>
</svg>
